<svg width="58" height="54" viewBox="0 0 58 54" fill="none" xmlns="http://www.w3.org/2000/svg">
<path d="M43.2087 39.8488C41.3419 41.5847 39.1313 42.967 36.7031 43.9166C34.2749 44.8662 31.6767 45.3647 29.0568 45.3834C26.4369 45.4022 23.8467 44.9409 21.4339 44.0259C19.0212 43.111 16.8332 41.7602 14.9949 40.0508L29.2104 26.8319L43.2087 39.8488Z" fill="url(#paint0_linear_300_1515)"/>
<path d="M14.9949 40.0508C11.2823 36.5985 9.19659 31.9162 9.19658 27.0339C9.19658 22.1516 11.2823 17.4692 14.9949 14.0169C18.7075 10.5646 23.7428 8.62515 28.9932 8.62515C34.2436 8.62515 39.2789 10.5646 42.9915 14.0169L28.9932 27.0339L14.9949 40.0508Z" fill="url(#paint1_linear_300_1515)"/>
<defs>
<linearGradient id="paint0_linear_300_1515" x1="32" y1="12.5" x2="48.789" y2="38.5853" gradientUnits="userSpaceOnUse">
<stop offset="0.0416667" stop-color="#0676F9"/>
<stop offset="1" stop-color="#6BFACB"/>
</linearGradient>
<linearGradient id="paint1_linear_300_1515" x1="42.9915" y1="14.0169" x2="17.0262" y2="41.9398" gradientUnits="userSpaceOnUse">
<stop stop-color="#8838FA"/>
<stop offset="1" stop-color="#6BFACB"/>
</linearGradient>
</defs>
</svg>
