<?xml version="1.0" standalone="no"?>
<!DOCTYPE svg PUBLIC "-//W3C//DTD SVG 20010904//EN"
 "http://www.w3.org/TR/2001/REC-SVG-20010904/DTD/svg10.dtd">
<svg version="1.0" xmlns="http://www.w3.org/2000/svg"
 width="928.000000pt" height="928.000000pt" viewBox="0 0 928.000000 928.000000"
 preserveAspectRatio="xMidYMid meet">
<metadata>
Created by potrace 1.14, written by Peter Selinger 2001-2017
</metadata>
<g transform="translate(0.000000,928.000000) scale(0.100000,-0.100000)"
fill="#000000" stroke="none">
<path d="M73 7545 c0 -8 5 -15 10 -15 5 0 4 -7 -3 -15 -7 -8 -9 -15 -4 -15 5
0 2 -5 -6 -10 -11 -7 -11 -10 -2 -10 7 0 10 -5 6 -12 -4 -6 -3 -8 4 -4 6 3 9
15 7 26 -2 12 0 18 5 15 11 -7 4 35 -8 47 -5 5 -9 2 -9 -7z"/>
<path d="M105 7531 c1 -17 7 -25 16 -23 8 2 11 0 7 -4 -4 -4 -2 -14 4 -23 10
-12 7 -12 -8 2 -11 9 -24 14 -28 10 -4 -4 3 -16 16 -26 16 -13 17 -16 4 -9
-28 14 -50 -8 -27 -26 14 -12 13 -13 -7 -9 -12 3 -20 1 -16 -4 3 -5 12 -9 20
-9 9 0 12 -5 8 -12 -4 -6 -3 -8 4 -4 6 3 20 -4 31 -16 21 -22 25 -32 22 -55
-1 -7 3 -13 9 -13 5 0 10 -5 10 -11 0 -5 -5 -7 -12 -3 -7 5 -8 3 -4 -5 5 -7
11 -10 14 -7 9 10 31 -15 26 -29 -3 -8 -1 -22 4 -32 8 -14 10 -10 7 18 -2 25
1 36 10 36 8 0 13 -5 12 -11 -1 -6 4 -10 11 -8 8 1 11 -2 7 -8 -3 -6 -11 -7
-17 -4 -8 5 -9 1 -5 -9 4 -10 10 -24 14 -34 5 -12 3 -14 -8 -8 -11 7 -12 6 -3
-6 12 -17 12 -29 -1 -49 -7 -13 -6 -13 7 -2 13 10 17 10 20 0 4 -10 8 -10 22
1 14 12 16 11 12 -10 -3 -13 -5 -24 -6 -24 -1 0 -3 -7 -5 -16 -3 -19 22 -21
29 -3 3 9 -1 11 -12 8 -15 -5 -15 -4 -1 8 9 7 14 20 11 28 -3 8 -2 12 2 8 4
-3 8 -12 10 -20 1 -7 5 -18 9 -25 10 -15 -3 -44 -16 -36 -6 3 -7 1 -3 -6 6 -9
11 -9 21 -1 10 8 15 8 21 -1 5 -8 3 -9 -6 -4 -8 5 -11 3 -8 -6 3 -8 10 -14 15
-14 6 0 15 -4 20 -9 5 -5 3 -6 -4 -2 -7 4 -13 4 -14 -1 0 -4 -2 -15 -4 -24 -2
-13 4 -16 25 -15 16 1 27 -1 24 -5 -2 -4 2 -9 8 -12 10 -3 10 -8 -1 -18 -8 -9
-11 -9 -7 -2 5 9 2 11 -10 6 -15 -5 -15 -7 0 -15 9 -5 20 -7 25 -3 11 6 9 -14
-2 -33 -5 -7 -14 -9 -20 -5 -7 4 -7 0 1 -10 8 -9 11 -22 7 -29 -4 -7 0 -5 8 4
8 10 18 14 23 10 4 -4 2 1 -5 11 -8 10 -9 17 -3 17 17 0 20 -24 6 -41 -12 -13
-12 -16 1 -16 8 0 13 3 11 6 -2 3 3 12 11 20 13 12 14 11 8 -10 -7 -22 -6 -23
9 -10 15 12 17 12 14 0 -2 -8 3 -13 10 -11 16 3 15 -3 -5 -23 -13 -13 -14 -21
-5 -35 6 -11 7 -22 1 -29 -6 -8 -5 -8 3 -1 19 16 32 11 17 -7 -13 -15 -12 -15
7 -5 12 6 26 7 35 1 7 -5 10 -9 5 -9 -6 0 -1 -7 10 -16 18 -14 18 -15 -3 -4
-17 8 -23 8 -23 0 0 -6 -4 -8 -10 -5 -6 3 -7 -1 -3 -10 4 -11 8 -13 13 -6 5 8
13 9 31 1 21 -9 21 -10 2 -6 -15 3 -20 0 -16 -10 3 -8 10 -11 17 -7 7 4 7 1
-1 -7 -18 -20 15 -43 37 -27 13 11 13 10 1 -6 -11 -14 -17 -15 -30 -5 -13 10
-12 8 2 -8 20 -25 23 -41 3 -25 -11 9 -16 9 -22 0 -4 -7 -3 -9 3 -6 13 8 46
-27 36 -37 -5 -4 -1 -6 7 -4 8 2 15 -3 16 -9 1 -7 2 -16 3 -21 0 -4 10 -13 22
-20 12 -8 18 -9 14 -3 -3 6 -1 11 5 11 7 0 9 -8 5 -21 -6 -17 -4 -20 6 -13 21
13 39 14 39 2 0 -6 -6 -8 -14 -5 -8 3 -17 -1 -20 -10 -5 -11 -2 -14 10 -9 15
6 15 4 3 -10 -13 -16 -12 -16 8 -6 22 12 31 7 27 -15 -1 -7 -2 -18 -3 -23 -1
-7 -8 -7 -22 0 -11 7 -23 10 -25 7 -2 -2 7 -9 21 -15 15 -7 27 -8 30 -2 4 6
12 10 18 10 7 0 6 -4 -3 -10 -11 -8 -12 -12 -3 -18 19 -12 5 -52 -15 -45 -10
4 -14 3 -10 -2 4 -4 24 -9 43 -10 42 -3 53 -10 30 -19 -11 -4 -14 -2 -9 6 4 7
3 8 -5 4 -8 -6 -9 -12 -2 -20 6 -7 9 -15 6 -18 -3 -2 2 -5 10 -5 10 0 12 4 5
12 -7 8 -5 12 5 12 8 0 12 -4 9 -9 -3 -4 1 -8 8 -8 10 0 11 -2 0 -8 -10 -7 -8
-15 9 -35 11 -15 25 -25 30 -22 5 4 9 1 9 -4 0 -15 -11 -13 -34 4 -11 8 -24
15 -30 15 -5 0 5 -11 24 -25 32 -24 34 -24 54 -7 21 17 21 17 2 -5 -17 -21
-17 -23 -2 -29 9 -3 16 -11 15 -18 -3 -26 2 -37 14 -30 9 6 9 5 0 -8 -7 -8
-10 -18 -6 -22 4 -4 1 -5 -7 -3 -8 2 -12 2 -7 0 4 -3 4 -10 1 -15 -4 -6 -2 -8
4 -4 6 3 13 2 17 -4 3 -5 1 -10 -6 -10 -7 0 -10 -2 -7 -5 3 -3 13 -2 22 1 14
5 15 9 4 15 -9 6 -9 9 -1 9 16 0 26 -17 13 -25 -5 -3 -10 -12 -10 -18 0 -8 3
-7 9 2 7 11 13 11 32 -2 29 -21 35 -61 7 -46 -10 5 -18 12 -18 15 0 3 4 3 9
-1 5 -3 12 -1 15 4 3 5 -1 11 -9 15 -8 3 -15 1 -15 -5 0 -6 -6 -7 -12 -3 -16
9 10 -25 32 -44 13 -10 12 -11 -5 -6 -19 5 -19 5 -1 -6 14 -10 20 -9 28 1 7
11 8 9 4 -4 -3 -10 -6 -21 -6 -23 0 -3 -10 0 -22 6 -22 11 -23 11 -3 -5 11 -9
19 -24 17 -33 -2 -14 -1 -15 7 -2 5 8 8 17 5 21 -2 4 0 10 5 14 6 3 8 -6 5
-20 -4 -22 -2 -24 9 -13 8 7 14 17 12 23 -1 5 0 7 2 2 3 -4 8 -5 12 -3 4 3 8
-1 8 -9 0 -8 -5 -13 -11 -12 -6 1 -11 -8 -10 -20 0 -13 -4 -23 -10 -23 -6 -1
0 -7 14 -15 19 -10 27 -10 32 -2 6 9 8 9 8 0 0 -7 -9 -17 -20 -23 -11 -6 -20
-16 -20 -23 0 -8 3 -9 8 -1 11 16 41 24 47 13 4 -5 11 -7 16 -4 5 4 9 2 9 -3
0 -6 -7 -13 -16 -16 -10 -4 -13 -2 -8 6 5 7 3 8 -6 3 -9 -5 -11 -4 -6 3 5 8 1
10 -9 5 -12 -4 -13 -8 -5 -13 7 -4 8 -10 4 -12 -5 -3 -3 -3 4 -1 8 2 16 -6 19
-17 3 -11 9 -20 15 -20 5 0 5 7 -1 18 -7 14 -6 18 9 19 10 1 21 -5 24 -14 5
-13 4 -14 -9 -3 -13 11 -15 9 -12 -10 2 -13 11 -28 21 -35 16 -12 15 -13 -1
-20 -10 -5 -21 -7 -25 -7 -12 3 -9 -2 11 -20 17 -14 20 -14 25 -2 3 9 1 12 -4
9 -6 -3 -10 -1 -10 4 0 16 16 13 31 -6 12 -14 12 -16 0 -8 -11 6 -13 3 -9 -13
4 -14 0 -26 -10 -33 -14 -8 -14 -10 -1 -6 8 3 26 -1 40 -9 13 -7 18 -13 11
-14 -10 0 -10 -5 -1 -22 7 -13 12 -24 11 -25 -1 -2 -2 -9 -2 -15 0 -9 3 -9 9
1 6 9 6 22 0 33 -7 14 -6 16 6 12 8 -3 12 -10 9 -15 -5 -8 9 -13 28 -10 4 0 5
-6 1 -15 -3 -9 0 -20 8 -25 11 -7 11 -9 1 -9 -8 0 -16 9 -19 20 -3 11 -10 20
-15 20 -5 0 -6 -5 -2 -11 3 -6 0 -15 -7 -21 -11 -7 -11 -8 3 -6 9 2 17 -1 17
-7 1 -5 -3 -10 -8 -10 -5 0 -12 -2 -15 -5 -3 -4 5 -6 19 -6 13 0 22 3 19 7 -2
4 5 9 15 12 17 4 17 2 4 -24 -8 -16 -12 -35 -10 -42 3 -7 6 -5 6 6 1 9 6 17
12 17 6 0 9 -6 6 -14 -4 -10 0 -13 14 -11 16 3 18 1 10 -9 -8 -10 -8 -16 2
-25 8 -6 17 -8 20 -4 4 3 7 2 7 -4 0 -6 -7 -14 -16 -17 -10 -4 -13 -2 -8 6 5
7 3 8 -6 3 -9 -6 -11 -4 -5 5 5 8 4 11 -3 6 -7 -4 -10 1 -7 13 2 14 -1 18 -11
14 -18 -7 -17 -13 5 -40 18 -21 35 -24 58 -10 6 4 15 3 18 -3 4 -6 1 -9 -6 -8
-6 2 -14 -3 -17 -11 -2 -8 0 -11 6 -8 5 4 12 -3 15 -14 4 -13 10 -18 18 -13 7
4 10 3 5 -4 -3 -6 -2 -13 3 -17 6 -3 7 -13 4 -22 -4 -10 -2 -14 4 -10 5 3 17
-2 25 -13 14 -16 15 -19 2 -24 -10 -4 -12 -2 -8 6 4 7 3 8 -4 4 -8 -5 -10 -1
-6 11 5 14 4 15 -4 4 -8 -11 -11 -9 -18 10 -4 13 -7 28 -6 32 1 5 -3 5 -10 1
-7 -4 -10 -4 -6 1 9 10 -10 35 -26 35 -6 0 -3 -5 6 -10 10 -6 15 -19 13 -30
-2 -11 0 -18 6 -15 5 4 9 1 9 -4 0 -6 -6 -11 -12 -11 -7 0 2 -9 20 -20 17 -11
32 -27 32 -35 0 -8 9 -15 20 -15 23 0 26 -10 8 -28 -9 -9 -5 -11 18 -9 20 3
31 0 31 -9 0 -10 -5 -10 -19 -3 -18 10 -19 8 -13 -27 7 -46 11 -51 18 -24 3
11 2 18 -2 15 -4 -2 -8 2 -8 9 0 20 25 8 32 -15 4 -11 1 -27 -6 -35 -6 -8 -9
-17 -5 -21 3 -3 6 -1 6 5 0 7 5 12 11 12 5 0 8 -4 4 -9 -3 -5 -1 -12 4 -16 5
-3 8 -14 6 -25 -2 -12 0 -18 6 -15 5 4 9 1 9 -4 0 -6 -5 -11 -12 -11 -17 0 -3
-11 19 -15 10 -1 17 -8 15 -15 -1 -6 2 -9 8 -5 5 3 10 -2 10 -12 0 -13 3 -15
8 -5 6 8 -3 25 -25 49 -19 19 -32 38 -29 41 3 3 1 11 -5 19 -9 9 -8 13 0 13 6
0 12 -4 12 -10 1 -5 2 -16 3 -22 0 -7 6 -13 13 -13 6 0 15 -4 20 -9 5 -5 2 -6
-6 -1 -9 5 -12 3 -9 -6 3 -8 14 -13 24 -12 10 1 13 0 6 -3 -9 -4 -7 -10 6 -22
10 -10 16 -16 13 -15 -6 4 -32 -49 -26 -55 3 -3 5 0 5 6 0 7 4 12 9 12 5 0 8
-8 6 -17 -1 -10 2 -24 8 -30 5 -7 6 -13 2 -13 -4 0 -2 -7 5 -15 11 -13 14 -13
26 2 12 17 13 16 9 -4 -2 -13 1 -25 6 -28 5 -4 7 -10 5 -14 -3 -4 1 -8 9 -8
10 0 12 4 5 12 -6 7 -3 11 9 11 12 0 17 -5 13 -15 -4 -10 -1 -12 9 -6 12 7 12
6 1 -7 -8 -9 -19 -15 -27 -12 -7 3 -16 0 -21 -7 -5 -9 -2 -10 9 -6 8 3 21 -1
27 -8 9 -11 17 -12 30 -5 13 7 21 7 25 0 4 -6 3 -10 -2 -9 -18 3 -33 -2 -33
-10 0 -6 9 -8 19 -6 16 3 19 -1 15 -22 -4 -22 -3 -24 10 -14 11 9 16 9 22 0 4
-7 3 -9 -4 -5 -13 8 -22 -5 -28 -39 -5 -26 10 -42 22 -24 4 7 3 9 -4 5 -7 -4
-10 1 -9 14 2 25 1 25 22 -6 9 -15 13 -24 9 -21 -5 3 -15 -2 -22 -9 -11 -13
-10 -14 13 -10 14 3 23 1 20 -5 -4 -5 -1 -9 4 -9 6 0 11 5 11 11 0 5 5 7 11 3
6 -3 7 -9 3 -13 -12 -8 -16 -31 -6 -31 4 0 14 6 22 13 12 10 12 9 1 -5 -11
-15 -10 -20 3 -34 9 -8 14 -19 11 -24 -3 -5 0 -10 6 -12 9 -3 9 -10 0 -27 -7
-12 -10 -27 -7 -34 2 -7 5 -5 5 5 1 9 5 20 11 23 6 4 7 -1 4 -12 -5 -16 -3
-15 12 2 16 19 16 19 10 1 -4 -12 0 -27 11 -40 18 -20 18 -20 -8 -4 -18 11
-30 13 -40 6 -11 -8 -11 -9 3 -5 19 6 42 -15 30 -28 -4 -5 -1 -5 6 -1 6 4 12
2 12 -3 0 -6 5 -11 11 -11 5 0 7 4 4 10 -3 6 -1 10 4 10 6 0 12 -4 12 -10 1
-5 2 -16 3 -22 1 -7 -1 -20 -6 -30 -5 -11 -3 -18 8 -22 8 -3 12 -11 8 -17 -4
-8 -3 -9 4 -5 7 4 12 3 12 -3 0 -5 -6 -12 -13 -14 -9 -4 -9 -6 0 -6 21 -2 25
20 7 40 -14 16 -15 22 -4 32 10 10 11 9 5 -2 -5 -9 -2 -19 9 -27 20 -14 18
-61 -2 -56 -8 1 -10 -2 -7 -9 5 -8 10 -8 18 0 15 15 32 14 20 -1 -15 -18 -12
-42 6 -58 13 -13 14 -12 7 5 -12 32 -12 37 2 41 7 1 8 0 2 -3 -6 -2 0 -14 12
-25 13 -11 17 -17 11 -13 -7 3 -13 0 -14 -7 0 -7 -2 -21 -4 -30 -4 -22 -1 -22
16 -1 12 15 12 16 -1 8 -12 -6 -13 -5 -3 5 18 19 27 6 14 -19 -8 -13 -8 -22
-1 -26 6 -4 8 -11 4 -16 -3 -5 -2 -9 3 -8 22 4 32 -2 27 -16 -5 -11 -2 -13 12
-8 11 4 15 3 10 -5 -10 -17 13 -25 32 -10 15 11 15 11 5 -2 -9 -11 -9 -19 0
-31 7 -9 15 -16 19 -15 3 1 10 -2 14 -6 3 -4 -3 -6 -14 -3 -16 3 -19 0 -15
-12 5 -11 3 -14 -6 -9 -9 6 -9 3 1 -13 7 -12 17 -21 22 -21 4 0 3 6 -3 14 -9
11 -9 16 0 22 8 4 9 3 5 -5 -4 -6 0 -14 10 -18 14 -5 13 -8 -7 -20 -22 -13
-22 -13 -2 -8 25 7 36 -5 22 -25 -5 -9 -9 -10 -9 -3 0 6 -9 11 -19 10 -11 0
-17 -5 -15 -9 3 -5 10 -6 15 -3 5 4 13 -4 18 -17 7 -15 10 -17 10 -7 1 9 8 22
17 29 12 11 15 11 12 -1 -2 -8 3 -13 10 -12 17 4 15 -2 -5 -18 -14 -12 -16
-12 -8 0 5 10 4 12 -4 7 -6 -4 -9 -12 -6 -17 4 -5 0 -9 -7 -9 -8 0 -6 -5 5
-11 12 -7 16 -18 13 -32 -3 -12 -3 -16 0 -9 3 6 14 12 25 12 16 0 17 -4 8 -27
-6 -15 -7 -24 -3 -20 4 4 14 1 23 -6 14 -11 14 -10 2 6 -8 9 -11 20 -7 24 3 3
6 1 6 -5 0 -6 8 -9 18 -6 14 5 15 4 2 -5 -8 -6 -11 -11 -6 -11 5 0 1 -10 -10
-22 -10 -13 -12 -17 -4 -11 10 7 21 8 30 3 8 -5 18 -6 24 -3 5 3 6 1 2 -6 -4
-6 0 -14 9 -17 13 -5 14 -9 4 -15 -10 -6 -7 -13 12 -28 l24 -21 -32 17 c-17
10 -30 20 -27 24 2 4 -3 9 -11 12 -12 5 -12 2 -3 -18 6 -14 18 -25 26 -25 10
0 12 -7 8 -24 -7 -28 12 -46 25 -25 11 19 0 27 -12 9 -9 -13 -10 -13 -6 0 4
16 47 24 47 9 0 -5 -4 -9 -10 -9 -5 0 -10 -9 -10 -19 0 -11 -3 -21 -8 -24 -4
-2 -2 -3 4 -1 6 1 17 -2 23 -7 8 -6 8 -5 1 3 -6 7 -10 17 -10 22 0 6 7 0 16
-13 14 -19 14 -25 3 -32 -8 -5 -16 -3 -21 4 -4 7 -6 3 -5 -11 1 -14 5 -18 11
-12 15 15 26 12 26 -6 0 -8 -4 -12 -10 -9 -5 3 -10 2 -10 -4 0 -17 18 -22 23
-7 3 8 15 14 25 13 13 -1 18 -6 14 -15 -3 -8 1 -18 9 -23 11 -7 11 -9 1 -9 -8
0 -16 9 -19 20 -3 11 -10 20 -15 20 -5 0 -6 -5 -2 -11 3 -6 0 -16 -7 -21 -11
-8 -11 -9 3 -5 23 8 29 -2 17 -27 -9 -19 -9 -19 4 -3 14 17 36 23 38 10 0 -5
3 -20 5 -35 3 -19 0 -28 -13 -31 -14 -4 -13 -5 5 -6 12 0 22 -6 22 -12 0 -5
-6 -7 -12 -3 -10 6 -10 5 -1 -8 7 -8 11 -17 8 -19 -2 -3 7 -6 20 -7 14 -1 25
3 25 10 0 6 3 8 6 5 12 -11 -17 -36 -34 -30 -14 4 -14 3 -3 -5 10 -7 21 -7 34
0 13 7 17 7 13 0 -3 -6 -3 -12 1 -15 5 -2 2 -2 -5 0 -7 1 -11 -1 -7 -6 3 -5
-1 -12 -7 -14 -7 -3 2 -4 20 -2 17 2 32 -1 32 -6 0 -5 -4 -9 -9 -9 -14 0 -7
-30 9 -40 7 -4 20 -6 29 -3 14 4 14 3 1 -5 -8 -6 -18 -8 -22 -6 -4 3 -8 0 -8
-6 0 -7 7 -9 16 -6 22 8 47 -17 31 -33 -8 -8 -7 -18 6 -40 22 -37 22 -47 0
-30 -17 13 -17 13 -1 -7 12 -14 14 -24 8 -30 -7 -7 -6 -11 4 -11 8 0 13 4 10
9 -8 12 10 10 26 -5 12 -10 12 -9 2 5 -9 11 -10 18 -2 23 6 3 7 11 4 17 -4 7
-2 8 5 4 9 -6 9 -11 0 -22 -7 -9 -8 -14 -1 -14 11 0 10 -38 -1 -57 -10 -16 6
-24 23 -12 8 5 10 9 4 9 -6 0 -11 7 -11 15 0 18 14 7 19 -14 6 -26 31 -49 47
-44 13 4 14 3 2 -5 -8 -6 -16 -21 -18 -34 l-3 -23 16 25 15 25 -6 -25 c-4 -14
-7 -41 -8 -60 -2 -27 2 -35 16 -36 12 -2 13 -1 2 3 -8 2 -13 9 -9 14 3 5 11 7
17 3 7 -3 4 1 -5 9 -17 13 -15 27 4 27 5 0 6 -5 2 -12 -5 -7 -2 -9 8 -6 9 4
15 0 15 -8 0 -8 -4 -14 -8 -14 -4 0 -6 -9 -4 -19 3 -15 0 -18 -13 -14 -14 6
-15 5 -2 -9 14 -15 16 -15 24 3 10 20 26 26 26 9 0 -5 -5 -10 -10 -10 -6 0 -9
-13 -8 -29 1 -16 5 -28 9 -25 11 7 39 -38 32 -50 -3 -6 0 -5 8 1 16 16 29 17
29 2 0 -5 -3 -8 -7 -6 -5 3 -15 -2 -23 -11 -13 -14 -12 -15 3 -9 21 8 69 -12
64 -27 -3 -6 -9 -10 -15 -9 -6 2 -16 -7 -22 -20 -9 -18 -9 -20 2 -7 17 19 48
22 41 4 -3 -8 -9 -11 -14 -8 -5 3 -9 0 -9 -6 0 -7 8 -9 21 -5 15 5 19 4 15 -4
-4 -6 -2 -11 4 -11 6 0 9 -4 5 -9 -3 -5 -1 -12 4 -16 6 -3 7 -13 4 -23 -6 -15
-5 -16 13 -2 10 8 16 11 12 6 -10 -12 28 -49 44 -41 7 3 5 0 -5 -8 -16 -13
-16 -15 -2 -21 9 -3 14 -10 10 -15 -3 -5 -1 -12 5 -16 6 -4 8 -11 4 -16 -6
-10 32 -51 58 -63 7 -3 3 -4 -9 -2 -13 2 -24 -2 -27 -11 -3 -8 -11 -11 -17 -7
-8 4 -9 3 -5 -5 6 -9 11 -9 22 0 8 6 18 9 21 5 4 -4 1 -11 -7 -16 -13 -9 -13
-10 0 -10 13 0 13 -2 1 -9 -12 -8 -9 -11 12 -16 14 -4 29 -16 32 -26 4 -11 11
-16 18 -13 7 4 9 4 5 -1 -4 -4 -3 -14 3 -21 7 -8 7 -14 -1 -19 -5 -3 -10 -12
-10 -18 0 -7 4 -6 10 3 8 12 10 12 16 -3 4 -12 13 -16 28 -12 19 5 19 5 3 -5
-9 -6 -15 -15 -12 -21 4 -5 1 -9 -6 -9 -7 0 -4 -7 7 -15 19 -14 19 -14 -1 -15
l-20 -1 20 -8 c11 -5 24 -6 28 -4 5 3 15 -4 23 -16 9 -12 19 -19 23 -17 4 3 8
-1 8 -9 0 -8 -4 -12 -9 -9 -4 3 -8 -2 -8 -11 0 -9 4 -13 10 -10 5 3 10 2 10
-3 0 -17 -13 -22 -29 -10 -12 10 -12 8 1 -8 14 -16 15 -23 5 -34 -6 -8 -3 -7
9 3 26 21 41 22 24 2 -7 -9 -10 -18 -6 -22 3 -3 6 -2 6 4 0 6 7 14 16 17 15 6
15 4 3 -10 -13 -16 -12 -16 9 -5 18 9 22 9 20 -1 -2 -7 3 -12 11 -10 11 2 12
0 2 -11 -9 -12 -8 -15 7 -19 10 -3 18 -15 19 -29 2 -19 0 -21 -8 -9 -9 12 -10
10 -6 -7 3 -12 0 -24 -7 -27 -6 -2 -3 -5 6 -5 9 -1 20 8 23 20 4 11 9 18 12
16 2 -3 0 -14 -6 -25 -8 -15 -8 -22 2 -25 6 -3 1 -5 -13 -4 -14 0 -32 5 -40
11 -13 9 -13 8 -3 -5 14 -17 73 -24 73 -9 0 5 8 7 18 4 14 -5 14 -4 2 4 -8 6
-18 8 -22 6 -10 -6 -11 10 -1 19 3 4 11 2 18 -3 8 -7 12 -5 12 5 0 8 -3 12 -7
10 -3 -2 -12 5 -19 17 -10 16 -10 18 0 12 9 -5 10 -2 6 9 -5 13 -2 15 17 7 13
-5 29 -4 37 1 9 5 10 9 2 9 -13 0 -15 58 -2 66 5 3 6 -2 3 -10 -3 -9 -1 -16 5
-16 10 0 16 21 12 43 -1 4 7 3 18 -2 16 -9 19 -8 16 7 -2 9 -4 20 -4 24 -1 3
-9 9 -18 12 -11 3 -9 4 6 3 13 -1 26 3 28 10 3 8 -3 11 -17 8 -11 -2 -18 0
-15 5 3 4 23 7 46 5 35 -3 38 -2 23 9 -12 9 -14 15 -6 20 7 4 12 12 12 18 0 6
-7 5 -17 -3 -15 -12 -16 -12 -8 1 6 8 10 17 11 20 3 18 18 40 26 40 6 0 5 -6
-2 -15 -9 -10 -9 -15 -1 -15 6 0 11 5 11 11 0 5 6 7 13 3 7 -5 6 0 -3 11 -14
17 -13 17 10 10 23 -6 23 -6 7 6 -9 8 -19 25 -22 37 -3 20 -2 22 10 12 11 -10
15 -10 15 -1 0 7 5 9 11 5 8 -4 7 -9 -2 -15 -7 -4 -17 -5 -23 -2 -5 3 -6 1 -2
-5 12 -19 47 4 39 26 -6 15 -5 16 13 2 18 -14 18 -14 5 3 -12 15 -11 20 5 40
10 12 25 27 32 34 12 10 11 12 -7 10 -11 -1 -21 -5 -21 -10 0 -4 -5 -5 -11 -2
-13 9 -7 15 21 20 28 5 28 5 32 35 2 14 7 31 11 37 5 7 5 17 2 23 -3 6 1 7 10
4 13 -5 13 -9 3 -22 -12 -13 -11 -14 9 -2 21 13 21 15 4 30 -15 12 -16 17 -6
27 13 12 25 7 25 -9 0 -5 -5 -6 -12 -2 -7 4 -8 3 -4 -4 4 -6 13 -9 22 -5 11 4
12 8 3 19 -7 8 -8 18 -4 22 4 4 10 1 12 -5 3 -7 9 -13 15 -13 7 0 7 4 -1 13
-8 10 -3 19 21 37 29 21 30 24 13 36 -10 7 -22 11 -28 7 -6 -4 -7 -1 -3 6 5 7
14 10 21 7 7 -2 16 2 19 11 4 8 12 13 20 10 8 -3 13 1 13 11 0 34 3 43 12 37
6 -3 8 -14 6 -25 -2 -12 -1 -18 3 -16 12 7 9 91 -3 89 -5 -1 -11 -7 -14 -14
-2 -7 1 -9 10 -4 11 6 12 5 2 -5 -17 -18 -27 -7 -18 20 4 13 12 19 21 16 8 -3
14 -1 14 5 0 6 5 7 10 4 9 -5 14 7 12 27 -2 13 26 29 33 18 8 -13 25 -13 25 1
0 5 -4 8 -9 4 -5 -3 -13 0 -16 5 -5 8 -13 6 -26 -6 -10 -9 -16 -20 -14 -24 7
-11 -20 -20 -34 -11 -8 5 -3 11 14 19 17 8 23 17 19 25 -4 6 -3 9 1 4 5 -4 17
1 28 10 11 10 18 13 14 7 -3 -6 0 -11 8 -11 8 0 12 4 9 9 -3 4 -2 14 3 21 4 6
8 19 8 27 0 9 8 14 20 12 16 -2 17 -1 5 7 -14 10 -7 16 14 12 5 -1 4 5 -4 13
-15 19 -24 21 -14 4 4 -7 3 -8 -5 -4 -6 4 -10 4 -9 -1 3 -9 -5 -13 -23 -13 -7
0 0 10 15 21 15 12 25 28 22 35 -3 8 -2 13 2 13 4 -1 14 -1 22 0 12 1 12 3 2
10 -11 7 -10 9 3 14 9 4 14 3 11 -2 -3 -5 1 -12 9 -15 13 -4 13 -2 5 14 -7 14
-7 21 3 27 8 4 17 16 20 26 4 10 11 15 17 12 5 -3 7 0 4 9 -5 12 -8 12 -23 -2
-10 -9 -16 -20 -15 -23 2 -4 -2 -12 -10 -18 -10 -9 -15 -8 -19 3 -4 10 -1 13
8 10 10 -4 13 0 10 15 -3 15 0 18 13 14 15 -6 15 -4 4 9 -10 13 -10 18 -1 24
8 5 9 3 4 -6 -6 -10 -4 -12 7 -7 9 3 19 2 24 -3 5 -5 10 8 10 30 1 25 -2 37
-9 33 -6 -4 -7 -1 -3 6 5 7 10 10 13 7 10 -10 43 14 43 31 0 14 -2 14 -15 -3
-15 -18 -15 -18 -8 0 5 15 3 17 -8 11 -12 -7 -12 -6 1 9 14 17 15 17 30 -2 16
-19 17 -19 30 12 8 17 13 35 12 40 -2 5 4 6 13 2 10 -3 13 -2 10 5 -4 5 -15 7
-25 4 -20 -6 -21 7 -4 39 10 16 12 17 17 2 4 -10 3 -14 -2 -11 -5 3 -12 1 -16
-5 -3 -5 3 -10 15 -10 17 0 19 5 15 28 -7 42 26 75 63 62 24 -9 25 -9 9 4 -21
16 -31 67 -12 60 6 -3 12 -11 12 -19 0 -8 -5 -11 -10 -8 -6 3 -7 1 -3 -5 4 -6
14 -8 22 -5 11 4 12 8 4 13 -6 4 -11 10 -11 14 3 22 -1 35 -11 39 -7 2 -5 3 5
2 17 -3 24 9 10 18 -5 2 -3 3 3 1 7 -1 21 4 33 12 13 10 21 11 21 4 0 -6 5 -8
11 -4 8 5 8 9 -1 14 -13 8 13 40 33 40 7 0 -1 9 -18 21 -16 11 -23 19 -15 18
8 -1 26 3 40 9 14 6 18 11 10 11 -9 1 -21 -4 -28 -11 -7 -7 -12 -8 -12 -2 0 5
9 17 20 27 23 19 26 37 8 37 -9 0 -8 3 2 9 18 12 33 4 23 -12 -4 -8 -1 -7 9 1
13 10 17 10 21 0 4 -9 6 -10 6 -1 1 7 -10 18 -23 25 -22 12 -23 14 -8 28 14
13 15 12 8 -5 -4 -11 -4 -16 0 -12 4 4 13 2 20 -4 10 -8 11 -6 1 15 -7 14 -16
26 -21 26 -17 0 28 29 46 30 9 0 20 9 23 20 4 11 10 18 15 15 5 -3 7 4 5 16
-3 13 -10 26 -17 31 -9 5 -10 8 -1 8 7 0 10 9 8 21 -4 17 -2 19 11 9 10 -9 11
-16 4 -25 -7 -9 -6 -16 4 -24 12 -10 17 -8 26 11 10 21 10 21 -3 6 -8 -10 -17
-15 -20 -11 -4 3 -2 12 4 20 9 9 8 17 0 27 -8 10 -8 16 2 25 8 6 17 8 20 4 6
-6 11 11 8 29 0 5 4 7 10 5 6 -1 14 4 16 11 3 6 -1 10 -9 9 -7 -2 -10 -2 -5 0
4 3 5 8 2 12 -2 5 7 6 22 3 18 -3 24 -1 19 7 -4 6 -11 9 -16 6 -4 -3 -7 3 -6
12 2 10 10 18 19 18 8 0 19 4 24 9 4 5 3 6 -3 3 -6 -4 -20 0 -30 9 -18 14 -17
14 5 3 21 -10 23 -9 18 5 -3 8 -3 18 2 20 7 5 9 -1 13 -44 2 -13 7 -18 16 -15
7 2 11 1 7 -4 -3 -5 1 -12 7 -14 10 -4 10 -8 -1 -15 -9 -7 -10 -11 -2 -13 7
-3 13 -14 14 -27 0 -12 5 -22 9 -22 4 0 7 10 5 22 -1 12 3 23 8 23 6 0 15 3
21 7 7 5 10 0 9 -15 -4 -37 -5 -38 -17 -31 -7 4 -8 3 -4 -4 4 -7 2 -12 -5 -12
-7 0 -9 -3 -6 -7 4 -3 18 3 30 15 18 17 24 19 24 8 0 -8 -4 -13 -8 -11 -14 9
-17 -24 -4 -42 13 -16 16 -16 25 -3 5 8 10 10 10 4 0 -6 -10 -19 -22 -28 -23
-15 -23 -16 5 -6 38 13 41 13 22 -6 -12 -12 -13 -19 -4 -30 6 -7 8 -18 5 -23
-4 -5 -2 -13 4 -16 6 -4 9 -3 8 2 -2 4 2 9 7 11 13 3 13 -21 0 -31 -6 -5 -4
-7 5 -4 8 2 15 13 15 24 0 12 3 24 6 28 4 3 6 -2 6 -12 0 -43 2 -49 14 -33 8
12 10 12 7 1 -2 -8 -12 -15 -22 -17 -10 -1 -21 -6 -24 -10 -4 -4 1 -4 11 -1
11 4 17 1 17 -9 0 -9 -5 -12 -12 -8 -7 4 -8 3 -4 -4 4 -6 14 -8 24 -5 14 5 15
3 5 -8 -16 -16 -17 -29 -2 -29 5 0 7 5 4 10 -3 5 3 10 14 10 12 0 21 -5 21
-11 0 -5 -4 -7 -10 -4 -6 3 -7 -1 -4 -10 5 -12 9 -13 21 -4 7 7 11 19 8 28 -4
12 -3 13 5 5 8 -8 7 -18 -3 -37 -8 -15 -17 -24 -20 -20 -4 3 -7 1 -7 -6 0 -7
6 -11 14 -8 19 8 42 -18 25 -29 -8 -4 -9 -3 -5 4 4 7 5 12 2 12 -3 0 -10 -9
-16 -21 -10 -19 -10 -19 8 -10 15 8 23 7 32 -4 7 -8 9 -15 4 -15 -5 0 -3 -4 5
-9 8 -5 23 -7 34 -5 16 3 18 1 9 -8 -18 -18 -15 -33 3 -18 13 11 14 10 9 -4
-3 -9 -9 -16 -13 -16 -10 0 -33 17 -32 24 1 3 -2 6 -6 6 -4 0 -8 -6 -9 -15 -1
-8 2 -13 6 -10 5 3 12 -4 15 -16 4 -12 10 -18 14 -13 3 5 13 10 21 12 11 3 10
-2 -4 -17 -16 -17 -17 -23 -6 -36 7 -9 19 -14 25 -11 18 6 13 -46 -5 -62 -12
-10 -9 -10 15 0 17 6 35 16 42 20 6 6 14 4 19 -3 4 -7 3 -9 -4 -5 -6 3 -13 2
-17 -4 -12 -20 -15 -59 -5 -65 6 -4 7 -12 4 -18 -4 -8 -2 -7 7 1 10 9 10 15 3
20 -6 4 -11 15 -11 24 0 14 3 15 14 7 7 -6 11 -14 9 -18 -3 -4 -1 -13 5 -21 6
-10 9 -11 9 -2 0 6 5 12 11 12 8 0 8 -5 -1 -15 -7 -8 -9 -15 -5 -15 4 0 3 -6
-3 -13 -12 -14 2 -46 15 -34 4 5 2 12 -6 16 -10 7 -10 9 2 14 8 3 23 -1 34 -9
17 -13 17 -14 -2 -7 -11 3 -17 3 -13 -2 4 -4 3 -14 -2 -20 -8 -9 -6 -14 5 -19
9 -3 13 -2 10 3 -3 5 -1 12 4 15 10 7 9 -20 -2 -30 -4 -4 -7 -12 -7 -17 0 -6
9 0 20 13 27 31 26 16 -2 -23 -12 -18 -18 -29 -13 -25 14 13 37 -13 25 -28 -8
-9 -7 -12 4 -10 27 4 29 15 6 34 -16 13 -20 21 -11 26 6 4 10 4 9 -1 -2 -5 11
-22 27 -38 18 -16 23 -26 13 -22 -26 9 -22 -8 5 -22 12 -6 14 -9 4 -6 -10 3
-15 1 -12 -5 3 -6 0 -10 -7 -10 -10 0 -10 -2 1 -9 11 -7 11 -9 0 -14 -8 -3 -3
-5 11 -4 14 1 29 7 33 12 5 6 7 3 3 -7 -4 -12 0 -18 12 -19 11 0 12 -2 4 -6
-7 -3 -18 0 -25 5 -9 8 -17 8 -27 0 -13 -8 -12 -9 2 -5 16 6 32 -22 29 -53 -2
-13 -1 -13 8 0 6 9 6 19 1 25 -6 8 -5 12 4 12 7 0 13 -10 12 -21 0 -12 4 -22
9 -24 6 -2 16 -14 23 -28 7 -14 18 -22 24 -18 7 4 8 3 4 -4 -4 -7 -1 -12 8
-12 8 0 17 -3 19 -7 3 -5 -5 -8 -18 -8 -13 0 -21 5 -17 10 3 6 1 6 -3 2 -13
-12 -15 -37 -2 -34 6 1 12 -4 13 -10 1 -7 2 -18 3 -24 0 -5 6 -7 11 -4 6 3 10
-1 10 -9 0 -8 4 -17 8 -20 4 -2 8 4 8 15 0 10 -8 21 -16 24 -17 5 -24 35 -8
35 4 0 8 -7 8 -15 0 -13 11 -19 31 -17 3 1 6 -5 6 -13 0 -8 -5 -11 -10 -8 -6
4 -8 -1 -4 -11 4 -10 1 -19 -8 -22 -8 -4 -12 -11 -9 -16 4 -6 10 -5 14 3 7 10
11 10 24 0 23 -19 20 -34 -5 -26 -16 5 -20 3 -17 -6 3 -8 13 -13 22 -13 13 2
16 -4 12 -27 -2 -17 0 -27 5 -23 5 3 7 10 4 15 -9 14 5 11 21 -5 18 -18 18
-27 0 -20 -8 3 -17 1 -20 -4 -3 -5 9 -8 29 -5 34 3 55 -10 34 -23 -8 -5 -8 -8
1 -14 8 -5 7 -9 -5 -13 -9 -4 -13 -3 -10 3 3 6 4 10 1 10 -3 0 -10 -10 -17
-21 -6 -12 -7 -19 -1 -15 12 7 44 -3 38 -13 -3 -4 -1 -13 3 -20 7 -10 13 -10
29 -2 14 7 23 8 27 1 4 -6 1 -9 -6 -8 -6 2 -13 -2 -16 -9 -3 -8 3 -11 17 -8
18 3 20 2 10 -10 -14 -17 -24 -20 -15 -5 3 6 -1 7 -10 3 -13 -5 -14 -7 -3 -14
11 -7 10 -9 -1 -9 -8 0 -11 -3 -8 -6 4 -4 17 0 30 8 21 14 23 14 23 -2 0 -10
-4 -16 -8 -14 -4 3 -15 1 -23 -3 -12 -7 -11 -11 6 -21 12 -8 19 -9 15 -4 -3 5
1 9 8 9 15 0 15 -21 1 -34 -4 -4 -5 -3 -2 4 5 7 0 9 -15 5 -21 -5 -21 -6 -2
-12 21 -8 44 -2 44 11 0 5 5 9 12 9 6 0 8 -3 5 -7 -4 -3 1 -16 10 -27 18 -21
18 -21 -3 -3 -20 17 -22 17 -35 0 -9 -11 -10 -14 -2 -9 14 8 57 -17 46 -27 -3
-4 -11 -2 -18 3 -8 7 -12 5 -12 -4 0 -9 9 -13 23 -11 13 1 21 -2 18 -6 -3 -5
0 -9 6 -9 6 0 9 -4 6 -9 -4 -5 0 -12 6 -14 10 -4 10 -6 0 -6 -7 -1 -15 6 -18
14 -4 8 -13 15 -21 15 -9 0 -5 -8 12 -24 14 -13 27 -33 28 -45 1 -14 5 -17 13
-11 6 6 14 7 17 3 4 -3 7 -1 7 5 0 7 4 12 8 12 5 0 9 -6 9 -14 0 -8 -8 -13
-18 -11 -12 3 -16 -1 -12 -11 4 -10 0 -13 -13 -8 -16 5 -16 4 -4 -5 9 -6 18
-7 24 -1 14 14 23 12 23 -5 0 -8 -3 -13 -6 -11 -3 2 -12 -2 -18 -10 -11 -11
-8 -12 17 -9 20 2 28 0 24 -7 -5 -7 -1 -9 9 -5 24 9 21 0 -3 -13 -11 -6 -19
-7 -18 -1 2 5 -1 10 -6 10 -6 1 -11 -6 -12 -15 -1 -9 0 -13 3 -10 4 3 12 1 20
-5 10 -9 11 -15 1 -26 -6 -8 -7 -13 -2 -12 20 3 28 -2 15 -10 -10 -7 -7 -9 11
-8 16 1 24 7 21 14 -3 7 -10 10 -16 6 -6 -4 -7 -1 -2 7 6 9 4 11 -6 5 -8 -5
-11 -5 -7 0 4 4 3 14 -4 22 -8 11 -7 12 6 7 9 -3 16 -10 16 -16 0 -5 6 -6 13
-2 6 4 9 4 5 -1 -4 -4 -3 -16 3 -27 8 -14 14 -16 23 -9 9 8 13 7 13 -4 0 -7
-4 -13 -9 -12 -5 1 -17 -9 -26 -23 -9 -14 -12 -22 -7 -18 4 4 15 2 24 -5 14
-10 14 -10 3 5 -10 12 -10 18 -1 24 7 4 9 3 6 -3 -7 -11 16 -37 24 -28 3 2 6
-10 7 -27 2 -18 -1 -28 -5 -24 -4 4 -8 15 -8 23 0 9 -9 17 -21 18 -11 1 -21
-4 -21 -11 0 -9 5 -10 19 -3 12 6 18 6 18 -1 0 -5 -4 -10 -10 -10 -5 0 -10 -5
-10 -10 0 -6 3 -9 8 -9 4 1 9 0 12 -1 25 -9 38 -6 33 8 -4 14 -3 15 5 2 6 -8
8 -18 6 -22 -3 -4 0 -8 6 -8 7 0 10 -7 6 -15 -3 -8 2 -19 12 -24 9 -6 13 -11
8 -11 -5 0 -3 -6 3 -14 9 -11 8 -17 -4 -29 -14 -15 -12 -16 20 -13 20 2 39 7
43 12 4 4 -1 4 -11 1 -13 -5 -17 -3 -14 5 2 7 12 12 22 11 12 -1 14 2 6 10 -7
7 -15 6 -26 -3 -17 -14 -20 -3 -5 20 5 9 5 19 -1 26 -7 8 -6 14 1 19 6 4 9 1
8 -6 -2 -8 7 -14 20 -15 12 -1 22 3 22 8 0 6 -6 8 -13 5 -8 -3 -14 1 -14 9 0
8 2 12 5 9 2 -2 11 2 19 10 8 8 20 15 26 15 7 0 3 -7 -7 -15 -11 -8 -15 -15
-10 -15 24 0 33 23 18 45 -15 22 -14 23 21 21 31 -1 33 0 19 11 -9 7 -21 10
-25 7 -5 -3 -7 1 -4 8 6 13 65 53 76 50 4 -1 5 8 2 19 -6 20 -6 20 -17 -2 -6
-12 -15 -21 -21 -21 -12 2 -16 40 -4 48 4 2 6 -5 4 -17 -4 -19 -2 -19 21 6 14
15 23 32 20 39 -3 7 -5 7 -5 -1 -1 -15 -27 -17 -35 -4 -3 5 2 8 12 7 9 0 16 5
14 12 -2 9 4 8 21 -3 23 -14 24 -14 21 7 -1 13 -3 27 -3 31 -1 5 -5 6 -10 3
-11 -7 -8 21 4 31 4 4 6 4 3 -2 -3 -5 0 -15 7 -22 21 -19 26 8 6 31 -9 11 -10
16 -3 12 11 -7 17 5 13 27 -2 10 16 1 40 -20 13 -11 16 -11 16 2 0 8 -4 12 -9
9 -4 -3 -8 -1 -8 5 0 5 5 11 12 13 7 3 5 7 -6 11 -10 4 -15 3 -11 -3 3 -6 -1
-7 -10 -4 -14 6 -14 8 1 19 11 7 14 17 9 25 -6 9 -4 11 4 6 7 -5 10 -14 8 -20
-3 -7 0 -13 7 -13 8 0 11 9 8 24 -2 13 -9 23 -15 23 -6 0 -7 3 -4 6 4 4 13 1
22 -6 13 -11 14 -10 9 5 -5 13 -4 16 5 10 10 -6 11 -3 1 15 -7 12 -7 20 -2 16
6 -3 12 -3 15 1 2 5 2 3 1 -4 -2 -7 1 -15 7 -18 5 -4 6 -12 3 -18 -4 -7 -3 -8
2 -4 5 5 10 13 10 18 1 5 2 14 3 20 0 5 4 8 9 5 4 -2 8 9 8 25 1 16 -3 29 -8
29 -5 0 -6 -5 -2 -12 5 -7 3 -8 -6 -3 -10 6 -9 11 5 21 20 15 13 49 -7 39 -7
-4 -4 2 7 12 11 10 20 28 19 41 -1 12 1 20 5 17 3 -4 6 -14 6 -23 0 -10 8 -17
21 -18 17 -1 20 4 19 28 -2 29 16 58 36 58 5 0 9 7 9 16 0 8 4 13 9 10 11 -7
23 22 15 35 -3 6 -14 7 -25 4 -11 -4 -19 -2 -19 5 0 6 4 9 8 6 5 -3 19 2 31
10 18 13 20 19 10 30 -6 8 -9 17 -5 21 3 3 6 1 6 -6 0 -8 5 -9 19 -1 14 7 21
6 24 -3 3 -6 5 -3 6 8 2 40 4 55 10 56 29 4 45 9 55 19 8 8 6 9 -8 4 -13 -5
-17 -4 -12 4 3 6 -2 16 -11 22 -16 9 -15 10 7 7 14 -2 19 -2 12 0 -7 3 -10 9
-7 14 3 5 0 7 -7 6 -7 -2 -10 -2 -5 0 4 3 5 9 2 14 -4 5 1 6 9 3 18 -7 16 17
-4 42 -14 17 -13 18 2 6 14 -11 19 -10 33 10 11 15 15 17 12 6 -4 -11 -2 -17
6 -15 7 1 11 -6 9 -18 -5 -27 7 -14 13 14 2 12 0 19 -6 16 -5 -4 -9 1 -9 9 0
8 5 18 12 22 7 4 8 3 4 -4 -4 -7 -2 -12 4 -12 7 0 9 7 6 15 -19 46 -18 49 2
26 12 -13 22 -19 22 -13 0 6 -5 14 -11 17 -6 5 -3 13 10 22 12 8 21 21 21 30
0 9 -3 13 -7 9 -5 -4 -8 -12 -8 -18 0 -6 -7 -12 -16 -13 -9 -2 -16 3 -16 11 0
7 4 11 9 8 4 -3 11 1 14 10 7 19 32 28 40 14 5 -7 2 -8 -6 -3 -9 5 -11 4 -6
-4 10 -16 26 -4 19 14 -4 11 0 14 13 9 16 -5 16 -4 4 5 -12 9 -13 11 -1 11 8
0 12 3 8 6 -3 3 -12 2 -19 -2 -19 -12 -39 -14 -32 -3 3 5 10 7 15 4 8 -6 13
11 12 43 -1 10 5 9 23 -3 13 -8 24 -11 24 -5 0 5 -5 10 -11 10 -8 0 -8 4 -1
13 12 14 11 35 -1 54 -10 16 5 24 23 12 10 -5 11 -9 3 -9 -7 0 -10 -7 -6 -16
4 -12 8 -11 18 8 6 13 17 22 24 20 7 -1 10 2 6 8 -3 6 -10 8 -15 5 -4 -3 -11
2 -14 11 -4 12 -2 15 9 10 10 -4 15 1 15 14 0 11 5 20 11 20 5 0 7 -5 3 -12
-4 -7 -3 -8 5 -4 6 4 9 11 6 16 -7 11 20 32 30 22 4 -4 3 3 -4 15 -13 26 -14
33 -2 33 5 0 12 -8 14 -17 3 -13 5 -12 6 5 1 16 5 21 14 16 6 -4 9 -4 5 1 -11
12 11 47 25 39 7 -4 8 -3 4 2 -5 5 -13 10 -18 10 -5 1 -13 2 -18 3 -6 0 -9 10
-8 20 0 11 5 17 9 15 5 -3 6 -9 4 -13 -3 -4 1 -8 9 -8 10 0 11 5 5 17 -5 10
-6 21 -2 25 4 5 -2 5 -13 2 -17 -6 -18 -5 -4 5 9 7 14 18 12 25 -2 6 1 14 6
18 7 3 8 0 5 -9 -4 -10 1 -18 10 -22 15 -6 15 -7 0 -19 -14 -10 -15 -13 -3
-20 8 -5 11 -5 7 0 -5 5 1 15 12 22 11 8 18 18 15 23 -3 5 3 13 12 19 10 6 13
11 7 11 -16 0 -35 -25 -26 -35 4 -5 1 -5 -6 -1 -17 10 2 44 28 48 12 2 21 8
22 13 1 6 8 16 17 23 14 11 14 11 -3 5 -14 -5 -17 -3 -11 7 5 9 4 11 -4 6 -6
-4 -8 -13 -5 -19 4 -7 3 -8 -1 -4 -22 20 -12 35 21 32 19 -1 34 2 34 8 0 5 -6
7 -14 4 -8 -3 -16 2 -19 13 -3 11 0 18 6 17 6 -1 11 8 12 21 0 14 12 29 33 42
17 11 32 22 32 25 0 3 -15 -2 -32 -10 -23 -11 -28 -12 -16 -2 14 11 15 16 5
27 -9 10 -7 10 7 0 18 -13 19 -13 14 1 -4 9 -1 16 8 16 7 0 10 -5 7 -10 -3 -6
-1 -7 5 -3 6 3 9 15 7 26 -2 11 1 20 7 20 5 0 8 -7 4 -15 -3 -8 -1 -15 5 -15
5 0 9 18 7 40 -2 44 4 56 23 44 9 -5 8 -9 -5 -14 -17 -6 -17 -7 0 -20 10 -8
15 -10 11 -3 -4 6 -3 15 3 18 8 5 8 11 1 19 -6 7 -8 16 -4 19 3 4 11 -1 18
-10 11 -14 12 -14 10 3 -1 10 -7 29 -13 41 -20 36 -14 37 17 3 21 -24 30 -29
36 -20 5 8 4 11 -3 6 -20 -12 -25 17 -6 31 19 14 18 15 -3 33 -19 15 -20 19
-7 24 23 9 31 7 16 -3 -11 -7 -11 -9 1 -14 10 -4 14 0 12 11 -2 9 -4 21 -4 25
-1 5 -5 6 -10 2 -5 -3 -13 -1 -16 5 -4 6 -3 10 2 9 22 -4 31 3 28 21 -2 11 0
18 6 15 5 -4 9 -1 9 5 0 6 5 8 11 4 8 -4 7 -9 -2 -14 -7 -5 -14 -19 -16 -32
-2 -17 -1 -19 6 -8 5 8 7 18 4 24 -4 5 1 7 9 3 24 -9 29 3 12 29 -15 22 -15
23 9 19 21 -4 24 -1 24 31 0 19 -4 29 -8 23 -4 -7 -6 -20 -4 -30 3 -13 -1 -16
-12 -12 -12 5 -12 7 -1 14 7 5 9 9 5 9 -4 0 -3 8 2 18 7 13 6 23 -2 32 -7 7 2
4 18 -6 l30 -18 -18 21 c-14 16 -15 23 -6 29 7 4 10 3 6 -3 -4 -6 0 -13 8 -16
10 -4 12 -1 8 11 -6 15 -5 16 12 2 17 -14 18 -14 5 10 -13 24 -12 25 7 8 11
-10 24 -18 29 -18 5 0 5 4 -1 8 -5 4 -16 14 -23 23 -10 14 -10 18 3 23 9 3 13
2 10 -3 -3 -5 -1 -12 3 -15 5 -3 9 5 8 17 -1 12 -7 21 -12 20 -6 -1 -11 4 -11
12 0 7 8 12 19 10 23 -5 24 23 1 42 -17 13 -16 13 3 4 11 -5 26 -6 34 -1 8 5
17 7 21 4 4 -2 11 1 15 7 4 7 3 9 -3 6 -6 -4 -9 11 -9 37 1 31 5 42 14 39 10
-4 10 -9 1 -20 -10 -11 -9 -17 4 -29 9 -8 12 -9 7 -2 -14 16 -13 31 2 22 6 -4
8 -3 4 4 -3 5 0 13 6 15 10 4 10 6 1 6 -7 1 -13 8 -13 17 0 9 -5 12 -12 8 -7
-4 -10 -4 -6 1 4 4 2 15 -5 24 -7 9 -2 7 14 -4 15 -11 24 -24 21 -30 -3 -5 -1
-6 3 -2 14 12 15 38 2 30 -7 -3 -9 -3 -5 2 4 4 0 14 -10 22 -12 10 -7 9 16 -2
20 -10 30 -20 26 -28 -4 -7 -3 -8 2 -4 5 5 9 14 9 20 1 7 6 11 11 10 6 -1 10
10 9 25 -1 15 2 34 6 43 4 9 4 20 -1 25 -13 13 30 12 49 0 11 -7 12 -6 5 5
-14 22 -13 37 2 50 8 6 11 16 8 21 -3 5 -7 20 -9 34 -2 24 -1 24 21 9 28 -18
32 -9 7 12 -17 14 -17 14 2 8 11 -3 17 -3 13 0 -3 4 -3 19 2 35 5 18 4 33 -3
41 -10 11 -9 11 4 1 10 -7 16 -20 14 -30 -1 -9 0 -11 2 -4 3 7 10 9 16 5 6 -3
0 9 -13 27 -13 18 -18 30 -10 25 20 -13 50 -14 43 -2 -4 6 0 8 9 5 9 -4 15 0
15 8 0 10 -6 13 -16 8 -39 -15 -46 -16 -29 -1 10 8 16 16 13 19 -8 7 29 3 42
-5 6 -4 15 -3 18 3 4 6 1 9 -6 8 -6 -2 -14 3 -17 11 -3 8 0 11 7 7 6 -4 14 -1
17 8 3 8 13 12 22 9 15 -4 15 -3 2 7 -11 9 -12 13 -2 17 14 5 17 23 4 23 -5 0
-14 -10 -20 -22 -11 -23 -11 -22 -9 4 1 15 5 24 9 22 4 -3 8 0 8 6 0 6 4 9 9
5 5 -3 13 0 17 6 4 7 3 9 -3 6 -6 -4 -15 5 -21 18 -9 19 -9 24 1 22 6 -1 12 8
12 20 0 11 4 25 8 29 4 5 5 1 1 -9 -4 -11 -1 -17 7 -17 10 0 10 -3 2 -11 -6
-6 -9 -18 -6 -26 4 -11 8 -10 18 4 8 10 10 22 6 28 -13 16 -9 44 6 38 12 -5
16 6 16 49 0 10 5 14 14 11 11 -4 11 -8 3 -13 -8 -5 -8 -9 3 -13 10 -4 14 1
13 15 0 12 5 23 13 26 9 3 11 0 6 -9 -5 -8 -4 -11 1 -6 4 4 9 18 10 30 1 12 5
31 10 41 5 14 4 17 -4 12 -23 -14 -11 6 22 39 27 26 31 35 20 39 -8 3 -12 1
-9 -4 4 -6 -1 -7 -11 -3 -11 4 -13 8 -6 11 7 2 9 8 6 14 -4 6 2 5 15 -1 11 -7
21 -9 21 -5 0 3 8 0 18 -7 15 -12 15 -11 -1 8 -18 21 -18 21 1 27 11 4 23 14
26 22 3 8 2 13 -3 10 -4 -3 -17 4 -27 17 -10 12 -12 16 -4 10 16 -15 34 -17
25 -4 -3 5 0 13 6 17 8 4 9 3 5 -4 -4 -7 -2 -12 4 -12 7 0 9 8 5 19 -3 11 0
23 6 27 8 5 9 3 4 -5 -6 -10 -3 -11 14 -2 24 13 28 23 6 15 -11 -4 -13 -2 -9
9 3 10 15 14 32 12 15 -2 21 -2 15 1 -22 10 -14 26 10 20 12 -3 16 -3 9 0 -6
3 -9 11 -6 16 4 6 2 8 -3 5 -6 -4 -13 3 -16 14 -4 13 -10 18 -18 13 -8 -4 -10
-3 -5 4 5 9 14 7 32 -4 23 -15 24 -15 18 0 -4 10 1 26 12 38 11 12 14 18 8 15
-8 -5 -11 3 -9 23 1 17 4 31 6 33 2 1 3 0 2 -2 -3 -5 27 -61 33 -61 2 0 0 9
-6 21 -13 22 -6 54 9 44 16 -9 23 15 9 32 -11 15 -11 16 7 9 18 -7 18 -5 -2
14 -31 28 -29 34 5 13 25 -17 26 -17 13 0 -18 23 3 50 33 42 12 -3 9 2 -9 11
l-30 15 33 -5 c18 -3 31 -2 27 3 -3 5 1 12 7 15 7 3 2 3 -12 0 -19 -4 -22 -3
-10 5 8 6 11 11 6 11 -5 0 -4 6 1 13 6 6 9 20 8 30 -2 9 1 15 6 11 5 -3 7 -11
3 -17 -3 -7 3 -1 14 12 10 13 24 21 30 17 7 -4 9 1 7 14 -2 13 4 25 16 33 10
6 19 15 19 20 0 4 -4 5 -10 2 -5 -3 -10 -3 -11 2 0 4 -2 18 -3 30 -2 13 2 19
7 16 6 -4 8 0 4 10 -5 12 0 15 26 12 18 -2 26 -1 19 2 -6 2 -9 10 -6 15 4 6 2
8 -3 5 -6 -4 -13 0 -17 8 -3 8 0 17 6 21 7 4 8 3 4 -4 -5 -8 1 -12 14 -12 12
0 18 -4 15 -10 -3 -5 -1 -10 5 -10 7 0 9 8 5 20 -4 14 -2 19 7 17 7 -2 10 -2
5 0 -4 3 -5 9 -1 14 8 14 -3 11 -20 -7 -9 -8 -16 -11 -16 -5 0 13 35 32 52 29
6 -2 12 6 13 17 0 26 14 47 26 40 5 -3 6 0 3 8 -3 8 0 18 5 22 6 3 8 11 5 17
-5 8 -1 9 10 5 9 -4 15 -3 11 2 -3 5 -2 11 2 14 5 2 3 2 -4 1 -6 -2 -14 4 -17
13 -4 10 -2 13 7 10 8 -3 14 3 14 16 2 15 -1 17 -10 8 -6 -6 -16 -11 -21 -11
-6 0 -3 5 7 11 9 6 15 14 12 19 -3 5 0 12 6 16 7 4 10 3 7 -2 -3 -5 0 -14 7
-21 10 -9 14 -8 18 9 4 13 10 17 19 12 7 -4 10 -3 5 1 -4 5 3 19 15 32 12 13
17 23 12 23 -5 0 -2 5 6 11 13 9 13 10 0 6 -8 -2 -15 -9 -15 -14 0 -20 -10
-20 -27 -2 -14 15 -14 18 -2 23 10 4 12 2 8 -5 -4 -7 -1 -10 7 -7 8 3 13 11
11 18 -2 7 5 9 18 5 12 -4 20 -2 20 5 0 6 -4 8 -10 5 -5 -3 -10 -2 -10 4 0 6
-8 8 -17 5 -16 -5 -16 -4 0 6 10 6 25 9 32 6 8 -3 17 0 21 6 4 6 3 8 -3 5 -6
-4 -18 -1 -27 6 -15 11 -14 13 9 12 15 -1 31 -8 36 -16 8 -12 10 -12 8 1 -4
35 1 51 14 44 9 -6 9 -5 0 7 -9 11 -8 18 3 33 7 10 11 23 8 27 -3 5 -2 14 2
21 5 7 11 5 21 -7 7 -11 13 -14 13 -9 0 6 -5 15 -11 21 -7 7 -13 27 -14 45 -1
18 0 27 2 20 3 -6 8 -10 13 -7 5 3 7 -7 5 -22 -2 -24 -1 -25 10 -10 6 9 16 13
21 9 4 -4 3 0 -4 9 -14 19 -11 51 6 71 6 8 10 18 7 21 -3 4 -2 5 2 2 12 -9 12
-36 1 -29 -7 5 -8 2 -3 -6 5 -8 4 -11 -1 -7 -5 3 -10 -3 -10 -14 0 -18 1 -19
12 -4 7 9 21 23 31 31 12 10 13 12 3 9 -11 -4 -16 1 -17 16 -2 18 0 19 14 7
10 -7 14 -8 10 -1 -4 6 5 20 20 33 21 16 23 19 6 10 -14 -6 -23 -7 -23 -1 0 5
12 14 28 20 16 7 19 10 6 7 -17 -3 -20 1 -18 22 1 14 9 29 16 33 12 8 4 13
-16 10 -5 -1 -4 5 3 13 7 8 22 13 36 10 20 -3 23 -1 18 13 -6 16 -4 16 17 -2
14 -12 20 -14 15 -5 -5 8 -8 26 -6 39 2 15 -1 21 -8 17 -6 -4 -11 -3 -11 1 0
5 9 14 20 21 12 7 20 8 20 2 0 -5 -5 -10 -11 -10 -5 0 -7 -5 -3 -11 4 -8 11
-3 20 12 12 24 9 44 -6 34 -4 -3 -14 3 -21 13 -13 16 -13 16 5 2 18 -14 19
-13 13 3 -8 23 -2 22 22 -4 17 -19 19 -19 18 -2 -1 10 4 17 11 15 10 -2 10 2
0 18 -8 13 -16 16 -22 10 -6 -6 -14 -10 -20 -10 -5 0 -1 6 9 14 11 8 23 12 27
10 5 -3 6 5 4 18 -4 28 10 49 30 41 10 -4 12 0 8 11 -3 9 -11 13 -18 10 -6 -3
-2 2 9 11 11 9 19 17 18 18 -1 1 0 13 4 25 4 17 8 20 14 11 5 -8 3 -17 -4 -21
-9 -6 -9 -8 1 -8 6 0 15 0 19 0 4 0 8 7 9 16 3 20 24 35 38 27 5 -3 6 -1 2 5
-8 14 -41 0 -49 -20 -4 -10 -6 -9 -6 1 -1 7 11 25 25 38 25 23 25 25 10 48 -9
14 -13 25 -9 24 27 -5 33 2 23 24 -10 20 -10 20 3 4 13 -15 16 -15 27 -2 7 8
9 15 5 15 -5 0 0 9 10 20 9 10 20 18 24 17 3 -1 7 2 9 7 1 6 -5 11 -14 12 -9
2 -22 8 -28 15 -8 9 -6 9 12 0 22 -12 27 -7 23 26 -2 14 43 28 58 18 7 -3 8 0
5 9 -3 8 -14 13 -25 11 -11 -2 -17 0 -14 5 6 10 24 8 44 -4 10 -6 12 -5 7 2
-4 7 -1 12 6 12 7 0 4 6 -7 12 -19 11 -19 11 0 20 20 8 20 8 0 5 -11 -2 -19
-9 -17 -15 1 -7 -2 -12 -8 -12 -15 0 -12 16 5 34 9 8 22 13 30 10 23 -9 18 4
-6 17 -17 9 -20 8 -14 -2 5 -7 4 -10 -3 -5 -6 4 -8 14 -5 23 4 10 2 14 -4 10
-7 -5 -10 1 -9 15 3 22 -1 23 -61 23 -59 0 -76 -9 -56 -29 11 -10 12 -37 2
-30 -5 3 -7 9 -4 14 3 4 -2 13 -9 19 -10 8 -16 9 -21 1 -3 -6 -12 -7 -18 -3
-7 4 -23 9 -37 11 -25 3 -25 3 -5 -13 19 -16 18 -16 -7 -1 -18 10 -29 12 -33
5 -4 -6 -12 -6 -18 -1 -19 13 -42 8 -42 -10 0 -9 -4 -20 -9 -25 -5 -4 -7 -3
-3 2 11 20 -12 40 -45 42 -48 2 -50 2 -44 11 5 9 -89 10 -98 1 -3 -3 14 -5 39
-4 45 2 59 -7 29 -19 -8 -3 -12 -2 -9 4 3 6 2 10 -4 10 -5 0 -13 -5 -16 -10
-4 -7 -11 -8 -18 -1 -12 9 -18 11 -38 11 -5 0 -8 4 -5 8 2 4 -38 8 -90 7 -52
0 -94 -1 -94 -2 0 -1 10 -12 23 -24 24 -24 4 -16 -26 10 -22 19 -117 23 -110
5 2 -7 -5 -11 -19 -10 -17 1 -23 -4 -21 -19 1 -20 1 -20 -13 -1 -16 22 -60 34
-48 14 6 -10 5 -10 -7 -1 -12 10 -18 10 -29 0 -10 -9 -11 -9 -6 1 4 6 3 12 -3
12 -5 0 -15 -8 -20 -17 -6 -10 -11 -13 -11 -7 0 7 -10 14 -22 17 -12 4 -19 9
-16 12 3 4 16 1 28 -5 12 -7 20 -8 16 -2 -3 6 8 9 29 7 20 -1 37 1 40 4 5 9
-267 7 -282 -2 -6 -4 -14 -4 -17 1 -5 9 -71 10 -81 1 -3 -3 13 -5 35 -4 22 1
38 -1 34 -4 -3 -3 -11 -6 -17 -6 -7 0 -12 -8 -12 -17 0 -9 -4 -20 -9 -25 -5
-4 -7 -3 -3 2 11 20 -12 40 -45 42 -48 2 -50 2 -44 11 5 9 -89 10 -98 1 -3 -3
14 -5 39 -4 45 2 59 -7 29 -19 -8 -3 -12 -2 -9 4 3 6 2 10 -4 10 -5 0 -13 -5
-16 -10 -4 -7 -11 -8 -18 -1 -12 9 -18 11 -38 11 -5 0 -8 4 -5 8 6 10 -145 9
-160 0 -6 -4 -14 -4 -18 -1 -4 4 -33 8 -65 8 -44 0 -57 -3 -54 -12 3 -7 10
-10 17 -6 15 10 96 11 90 1 -3 -5 -19 -6 -35 -3 -23 4 -29 2 -23 -7 5 -10 4
-11 -6 -1 -11 10 -19 8 -39 -10 -14 -12 -20 -15 -13 -5 14 17 7 25 -18 23 -9
0 -14 -9 -13 -20 1 -20 1 -20 -13 -1 -16 22 -60 34 -48 14 6 -10 5 -10 -7 -1
-12 10 -18 10 -29 0 -10 -9 -11 -9 -6 1 4 6 3 12 -3 12 -5 0 -15 -8 -20 -17
-6 -10 -11 -13 -11 -7 0 7 -10 14 -22 17 -12 4 -19 9 -16 12 3 4 16 1 28 -5
12 -7 20 -8 16 -2 -3 6 8 9 29 7 20 -1 37 1 39 4 6 9 -386 7 -400 -1 -6 -4
-14 -4 -18 -1 -4 4 -33 8 -65 8 -44 0 -57 -3 -54 -12 3 -7 10 -10 17 -6 15 10
96 11 90 1 -3 -5 -19 -6 -35 -3 -23 4 -29 2 -23 -7 5 -10 4 -11 -6 -1 -11 10
-19 8 -39 -10 -14 -12 -20 -15 -13 -5 14 17 7 25 -18 23 -9 0 -14 -9 -13 -20
1 -20 1 -20 -13 -1 -16 22 -60 34 -48 14 6 -10 5 -10 -7 -1 -12 10 -18 10 -29
0 -10 -9 -11 -9 -6 1 4 6 3 12 -3 12 -5 0 -15 -8 -20 -17 -6 -10 -11 -13 -11
-7 0 7 -10 14 -22 17 -12 4 -19 9 -16 12 3 4 16 1 28 -5 12 -7 20 -8 16 -2 -3
6 8 9 29 7 20 -1 37 1 39 4 3 4 -58 6 -135 6 -76 0 -139 -1 -139 -2 0 -1 4
-13 10 -27 6 -16 6 -27 -1 -31 -5 -4 -9 -3 -8 2 4 24 -3 44 -13 41 -7 -3 -13
-10 -13 -16 0 -5 -4 -14 -9 -19 -5 -4 -6 -3 -2 4 7 13 -9 26 -38 30 -19 3 -19
3 0 -19 l19 -23 -26 22 c-20 18 -28 20 -39 10 -10 -10 -11 -9 -5 2 5 9 3 12
-6 9 -8 -3 -14 -12 -14 -21 0 -8 -4 -19 -9 -24 -5 -4 -7 -3 -3 2 9 16 -9 38
-33 42 -15 2 -19 -1 -14 -9 5 -10 4 -10 -6 -1 -11 10 -18 9 -34 -5 -20 -16
-20 -16 -7 1 8 10 9 17 3 17 -6 0 -13 -4 -17 -10 -3 -5 -12 -7 -20 -3 -29 11
-14 20 31 18 25 -1 47 1 49 5 2 3 -23 6 -56 6 -32 0 -59 -1 -59 -3 0 -1 4 -13
10 -27 6 -16 6 -27 -1 -31 -5 -4 -9 -3 -8 2 4 24 -3 44 -13 41 -7 -3 -13 -10
-13 -16 0 -5 -4 -14 -9 -19 -5 -4 -6 -3 -2 4 7 13 -9 26 -38 30 -19 3 -19 3 0
-19 l19 -23 -26 22 c-20 18 -28 20 -39 10 -10 -10 -11 -9 -5 2 5 9 3 12 -6 9
-8 -3 -14 -12 -14 -21 0 -8 -4 -19 -9 -24 -5 -4 -7 -3 -3 2 9 16 -9 38 -33 42
-15 2 -19 -1 -14 -9 5 -10 4 -10 -6 -1 -11 10 -18 9 -34 -5 -20 -16 -20 -16
-7 1 15 19 2 24 -17 5 -7 -7 -12 -8 -12 -4 0 5 -7 3 -15 -4 -13 -11 -14 -10
-9 4 4 10 13 15 21 12 8 -3 12 -2 9 3 -3 5 10 8 29 6 20 -1 38 1 40 5 5 9
-108 6 -122 -3 -7 -4 -14 -4 -17 1 -5 9 -71 10 -81 1 -3 -3 13 -5 35 -4 22 1
38 -1 34 -4 -3 -3 -11 -6 -17 -6 -7 0 -12 -8 -12 -17 0 -9 -4 -20 -9 -25 -5
-4 -7 -3 -3 2 11 20 -12 40 -45 42 -48 2 -50 2 -44 11 5 9 -89 10 -98 1 -3 -3
14 -5 39 -4 45 2 59 -7 29 -19 -8 -3 -12 -2 -9 4 3 6 2 10 -4 10 -5 0 -13 -5
-16 -10 -4 -6 -12 -7 -18 -3 -12 8 -17 9 -38 12 -5 0 -8 5 -5 9 6 10 -145 9
-160 0 -6 -4 -14 -4 -18 -1 -4 4 -33 7 -65 8 -43 0 -57 -3 -54 -13 4 -9 9 -9
18 -2 9 7 16 5 26 -7 11 -15 11 -16 -1 -6 -11 10 -19 9 -39 -10 -14 -12 -20
-15 -13 -5 14 17 7 25 -18 23 -9 0 -14 -9 -13 -20 1 -20 1 -20 -13 -1 -16 22
-60 34 -48 14 6 -10 5 -10 -7 -1 -12 10 -18 10 -29 0 -10 -9 -11 -9 -6 1 4 6
3 12 -3 12 -5 0 -15 -8 -20 -17 -6 -10 -11 -13 -11 -7 0 7 -10 14 -22 17 -12
4 -19 9 -16 12 3 4 16 1 28 -5 12 -7 20 -8 16 -2 -3 6 8 9 29 7 20 -1 37 1 40
4 5 9 -267 7 -282 -2 -6 -4 -14 -4 -17 1 -5 9 -71 10 -81 1 -3 -3 13 -5 35 -4
22 1 38 -1 34 -4 -3 -3 -11 -6 -17 -6 -7 0 -12 -8 -12 -17 0 -9 -4 -20 -9 -25
-5 -4 -7 -3 -3 2 11 20 -12 40 -45 42 -48 2 -50 2 -44 11 5 9 -89 10 -98 1 -3
-3 14 -5 39 -4 45 2 59 -7 29 -19 -8 -3 -12 -2 -9 4 3 6 2 10 -4 10 -5 0 -13
-5 -16 -10 -4 -6 -12 -7 -18 -3 -7 4 -20 9 -31 10 -16 3 -17 1 -5 -14 12 -17
12 -17 -7 0 -16 15 -17 19 -4 27 11 7 10 9 -8 7 -12 0 -22 -2 -22 -3 0 -2 4
-14 10 -28 6 -16 6 -27 -1 -31 -5 -4 -9 -3 -8 2 4 24 -3 44 -13 41 -7 -3 -13
-10 -13 -15 0 -6 -4 -15 -9 -20 -5 -4 -6 -3 -2 4 7 13 -9 26 -38 30 -19 3 -19
3 0 -19 l19 -23 -26 22 c-20 18 -28 20 -39 10 -10 -10 -11 -9 -5 2 5 9 3 12
-6 9 -8 -3 -14 -12 -14 -21 0 -8 -4 -19 -9 -24 -5 -4 -7 -3 -3 2 9 16 -9 38
-33 42 -15 2 -19 -1 -14 -9 5 -10 4 -10 -6 -1 -11 10 -18 9 -34 -5 -20 -16
-20 -16 -7 1 8 10 9 17 3 17 -6 0 -13 -4 -17 -10 -3 -5 -12 -7 -20 -3 -29 11
-14 20 31 18 25 -1 47 1 49 5 2 3 -23 6 -56 6 -32 0 -59 -1 -59 -3 0 -1 4 -13
10 -27 6 -16 6 -27 -1 -31 -5 -4 -9 -3 -8 2 4 24 -3 44 -13 41 -7 -3 -13 -10
-13 -16 0 -5 -4 -14 -9 -19 -5 -4 -6 -3 -2 4 7 13 -9 26 -38 30 -19 3 -19 3 0
-19 l19 -23 -26 22 c-20 18 -28 20 -39 10 -10 -10 -11 -9 -5 2 5 9 3 12 -6 9
-8 -3 -14 -12 -14 -21 0 -8 -4 -19 -9 -24 -5 -4 -7 -3 -3 2 9 16 -9 38 -33 42
-15 2 -19 -1 -14 -9 5 -10 4 -10 -6 -1 -11 10 -18 9 -34 -5 -20 -16 -20 -16
-7 1 14 17 3 24 -14 8 -11 -10 -62 5 -52 15 3 3 15 0 27 -6 12 -7 20 -8 16 -2
-3 6 8 9 29 7 20 -1 37 1 40 4 5 9 -227 7 -241 -1 -6 -4 -14 -4 -18 -1 -4 4
-33 7 -65 8 -43 0 -57 -3 -54 -13 4 -9 9 -9 18 -2 9 7 16 5 26 -7 11 -15 11
-16 -1 -6 -11 10 -19 9 -39 -10 -14 -12 -20 -15 -13 -5 14 17 7 25 -18 23 -9
0 -14 -9 -13 -20 1 -20 1 -20 -13 -1 -16 22 -60 34 -48 14 6 -10 5 -10 -7 -1
-12 10 -18 10 -29 0 -10 -9 -11 -9 -6 1 4 6 3 12 -3 12 -5 0 -15 -8 -20 -17
-6 -10 -11 -13 -11 -7 0 7 -10 14 -22 17 -12 4 -19 9 -16 12 3 4 16 1 28 -5
12 -7 20 -8 16 -2 -3 6 8 9 29 7 20 -1 37 1 39 4 6 9 -386 7 -400 -1 -6 -4
-14 -4 -18 -1 -4 4 -33 7 -65 8 -43 0 -57 -3 -54 -13 4 -9 9 -9 18 -2 9 7 16
5 26 -7 11 -15 11 -16 -1 -6 -11 10 -19 9 -39 -10 -14 -12 -20 -15 -13 -5 14
17 7 25 -18 23 -9 0 -14 -9 -13 -20 1 -20 1 -20 -13 -1 -16 22 -60 34 -48 14
6 -10 5 -10 -7 -1 -12 10 -18 10 -29 0 -10 -9 -11 -9 -6 1 4 6 3 12 -3 12 -5
0 -15 -8 -20 -17 -6 -10 -11 -13 -11 -7 0 7 -10 14 -22 17 -12 4 -19 9 -16 12
3 4 16 1 28 -5 12 -7 20 -8 16 -2 -3 6 8 9 29 7 20 -1 37 1 40 4 5 9 -267 7
-282 -2 -6 -4 -14 -4 -17 1 -5 9 -71 10 -81 1 -3 -3 13 -5 35 -4 22 1 38 -1
34 -4 -3 -3 -11 -6 -17 -6 -7 0 -12 -8 -12 -17 0 -9 -4 -20 -9 -25 -5 -4 -7
-3 -3 2 11 20 -12 40 -45 42 -48 2 -50 2 -44 11 5 9 -89 10 -98 1 -3 -3 14 -5
39 -4 45 2 59 -7 29 -19 -8 -3 -12 -2 -9 4 3 6 2 10 -4 10 -5 0 -13 -5 -16
-10 -5 -8 -12 -7 -22 2 -9 7 -18 12 -20 11 -8 -7 -24 -2 -19 5 6 10 -145 9
-160 0 -6 -4 -14 -4 -18 -1 -4 4 -33 7 -65 8 -43 0 -57 -3 -54 -13 4 -9 9 -9
18 -2 9 7 16 5 26 -7 11 -15 11 -16 -1 -6 -11 10 -19 9 -39 -10 -14 -12 -20
-15 -13 -5 14 17 7 25 -18 23 -9 0 -14 -9 -13 -20 1 -20 1 -20 -13 -1 -16 22
-60 34 -48 14 6 -10 5 -10 -7 -1 -12 10 -18 10 -29 0 -10 -9 -11 -9 -6 1 4 6
3 12 -3 12 -5 0 -15 -8 -20 -17 -6 -10 -11 -13 -11 -7 0 7 -10 14 -22 17 -12
4 -19 9 -16 12 3 4 16 1 28 -5 12 -7 20 -8 16 -2 -3 6 8 9 29 7 20 -1 37 1 40
4 5 9 -267 7 -282 -2 -6 -4 -14 -4 -17 1 -5 9 -71 10 -81 1 -3 -3 13 -5 35 -4
22 1 38 -1 34 -4 -3 -3 -11 -6 -17 -6 -7 0 -12 -8 -12 -17 0 -9 -4 -20 -9 -25
-5 -4 -7 -3 -3 2 11 20 -12 40 -45 42 -48 2 -50 2 -44 11 5 9 -89 10 -98 1 -3
-3 14 -5 39 -4 25 1 45 -2 45 -6 0 -5 -6 -9 -12 -9 -9 0 -8 -4 2 -11 13 -9 13
-10 0 -6 -8 2 -14 10 -13 16 4 14 -14 15 -22 1 -5 -8 -12 -7 -22 2 -9 7 -18
12 -20 11 -8 -7 -24 -2 -19 5 6 10 -25 9 -42 -2 -7 -4 -9 -13 -5 -19 5 -9 3
-9 -8 -1 -21 15 -44 11 -44 -8 0 -9 -4 -20 -9 -25 -5 -4 -7 -3 -3 2 11 20 -12
40 -45 42 -48 2 -50 2 -44 11 5 9 -89 10 -98 1 -3 -3 14 -5 39 -4 45 2 59 -7
29 -19 -8 -3 -12 -2 -9 4 3 6 2 10 -4 10 -5 0 -13 -5 -16 -10 -5 -8 -12 -7
-22 2 -9 7 -18 12 -20 11 -8 -7 -24 -2 -19 5 6 10 -145 9 -160 0 -6 -4 -14 -4
-18 -1 -4 4 -33 7 -65 8 -43 0 -57 -3 -54 -13 4 -9 9 -9 18 -2 9 7 16 5 26 -7
11 -15 11 -16 -1 -6 -11 10 -19 9 -39 -10 -14 -12 -20 -15 -13 -5 14 17 7 25
-18 23 -9 0 -14 -9 -13 -20 1 -20 1 -20 -13 -1 -16 22 -60 34 -48 14 6 -10 5
-10 -7 -1 -12 10 -18 10 -29 0 -10 -9 -11 -9 -6 1 4 6 3 12 -3 12 -5 0 -15 -8
-20 -17 -6 -10 -11 -13 -11 -7 0 7 -10 14 -22 17 -12 4 -19 9 -16 12 3 4 16 1
28 -5 12 -7 20 -8 16 -2 -3 6 8 9 29 7 20 -1 37 1 40 4 2 4 -65 6 -150 6 -117
0 -151 -3 -148 -12 3 -7 10 -10 17 -6 14 9 40 14 32 6 -3 -3 2 -13 12 -21 12
-10 9 -9 -10 2 -18 10 -29 12 -33 5 -5 -6 -12 -6 -22 3 -20 16 -17 17 -43 -7
-15 -14 -21 -15 -18 -5 2 10 -7 15 -32 16 -51 3 -52 3 -46 12 3 5 -1 9 -8 9
-8 0 -12 -11 -11 -26z m258 1 c15 -16 15 -19 2 -19 -8 0 -13 3 -10 5 3 3 -3
11 -13 18 -9 7 -12 14 -6 14 6 0 18 -8 27 -18z m38 1 c13 -15 12 -15 -8 -4
-24 12 -29 21 -14 21 5 0 15 -7 22 -17z m39 2 c19 -23 8 -25 -14 -4 -11 11
-15 19 -9 19 6 0 16 -7 23 -15z m360 -6 c22 -14 22 -15 2 -15 -11 0 -20 5 -19
10 1 5 -10 10 -25 10 -14 1 -29 4 -32 7 -13 12 53 2 74 -12z m43 3 c15 -16 15
-19 2 -19 -8 0 -13 3 -10 5 3 3 -3 11 -13 18 -9 7 -12 14 -6 14 6 0 18 -8 27
-18z m38 1 c13 -15 12 -15 -8 -4 -24 12 -29 21 -14 21 5 0 15 -7 22 -17z m39
2 c19 -23 8 -25 -14 -4 -11 11 -15 19 -9 19 6 0 16 -7 23 -15z m43 -3 c15 -16
15 -19 2 -19 -8 0 -13 3 -10 5 3 3 -3 11 -13 18 -9 7 -12 14 -6 14 6 0 18 -8
27 -18z m680 0 c15 -16 15 -19 2 -19 -8 0 -13 3 -10 5 3 3 -3 11 -13 18 -9 7
-12 14 -6 14 6 0 18 -8 27 -18z m38 1 c13 -15 12 -15 -8 -4 -24 12 -29 21 -14
21 5 0 15 -7 22 -17z m39 2 c19 -23 8 -25 -14 -4 -11 11 -15 19 -9 19 6 0 16
-7 23 -15z m360 -6 c22 -14 22 -15 2 -15 -11 0 -20 5 -19 10 1 5 -10 10 -25
10 -14 1 -29 4 -32 7 -13 12 53 2 74 -12z m43 3 c15 -16 15 -19 2 -19 -8 0
-13 3 -10 5 3 3 -3 11 -13 18 -9 7 -12 14 -6 14 6 0 18 -8 27 -18z m38 1 c13
-15 12 -15 -8 -4 -24 12 -29 21 -14 21 5 0 15 -7 22 -17z m39 2 c19 -23 8 -25
-14 -4 -11 11 -15 19 -9 19 6 0 16 -7 23 -15z m43 -3 c15 -16 15 -19 2 -19 -8
0 -13 3 -10 5 3 3 -3 11 -13 18 -9 7 -12 14 -6 14 6 0 18 -8 27 -18z m360 0
c15 -16 15 -19 2 -19 -8 0 -13 3 -10 5 3 3 -3 11 -13 18 -9 7 -12 14 -6 14 6
0 18 -8 27 -18z m38 1 c13 -15 12 -15 -8 -4 -24 12 -29 21 -14 21 5 0 15 -7
22 -17z m39 2 c19 -23 8 -25 -14 -4 -11 11 -15 19 -9 19 6 0 16 -7 23 -15z
m360 -6 c22 -14 22 -15 2 -15 -11 0 -20 5 -19 10 1 5 -10 10 -25 10 -14 1 -29
4 -32 7 -13 12 53 2 74 -12z m43 3 c15 -16 15 -19 2 -19 -8 0 -13 3 -10 5 3 3
-3 11 -13 18 -9 7 -12 14 -6 14 6 0 18 -8 27 -18z m38 1 c13 -15 12 -15 -8 -4
-24 12 -29 21 -14 21 5 0 15 -7 22 -17z m39 2 c19 -23 8 -25 -14 -4 -11 11
-15 19 -9 19 6 0 16 -7 23 -15z m43 -3 c15 -16 15 -19 2 -19 -8 0 -13 3 -10 5
3 3 -3 11 -13 18 -9 7 -12 14 -6 14 6 0 18 -8 27 -18z m40 0 c15 -16 15 -19 2
-19 -8 0 -13 3 -10 5 3 3 -3 11 -13 18 -9 7 -12 14 -6 14 6 0 18 -8 27 -18z
m38 1 c13 -15 12 -15 -8 -4 -24 12 -29 21 -14 21 5 0 15 -7 22 -17z m39 2 c19
-23 8 -25 -14 -4 -11 11 -15 19 -9 19 6 0 16 -7 23 -15z m360 -6 c22 -14 22
-15 2 -15 -11 0 -20 5 -19 10 1 5 -10 10 -25 10 -14 1 -29 4 -32 7 -13 12 53
2 74 -12z m43 3 c15 -16 15 -19 2 -19 -8 0 -13 3 -10 5 3 3 -3 11 -13 18 -9 7
-12 14 -6 14 6 0 18 -8 27 -18z m38 1 c13 -15 12 -15 -8 -4 -24 12 -29 21 -14
21 5 0 15 -7 22 -17z m39 2 c19 -23 8 -25 -14 -4 -11 11 -15 19 -9 19 6 0 16
-7 23 -15z m1043 -3 c15 -16 15 -19 2 -19 -8 0 -13 3 -10 5 3 3 -3 11 -13 18
-9 7 -12 14 -6 14 6 0 18 -8 27 -18z m38 1 c13 -15 12 -15 -8 -4 -24 12 -29
21 -14 21 5 0 15 -7 22 -17z m39 2 c19 -23 8 -25 -14 -4 -11 11 -15 19 -9 19
6 0 16 -7 23 -15z m360 -6 c22 -14 22 -15 2 -15 -11 0 -20 5 -19 10 1 5 -10
10 -25 10 -14 1 -29 4 -32 7 -13 12 53 2 74 -12z m43 3 c15 -16 15 -19 2 -19
-8 0 -13 3 -10 5 3 3 -3 11 -13 18 -9 7 -12 14 -6 14 6 0 18 -8 27 -18z m38 1
c13 -15 12 -15 -8 -4 -24 12 -29 21 -14 21 5 0 15 -7 22 -17z m39 2 c19 -23 8
-25 -14 -4 -11 11 -15 19 -9 19 6 0 16 -7 23 -15z m43 -3 c15 -16 15 -19 2
-19 -8 0 -13 3 -10 5 3 3 -3 11 -13 18 -9 7 -12 14 -6 14 6 0 18 -8 27 -18z
m967 -7 c14 -19 14 -19 -2 -6 -10 7 -18 18 -18 24 0 6 1 8 3 6 1 -2 9 -13 17
-24z m33 7 c15 -16 15 -19 2 -19 -8 0 -13 3 -10 5 3 3 -3 11 -13 18 -9 7 -12
14 -6 14 6 0 18 -8 27 -18z m38 1 c13 -15 12 -15 -8 -4 -24 12 -29 21 -14 21
5 0 15 -7 22 -17z m39 2 c19 -23 8 -25 -14 -4 -11 11 -15 19 -9 19 6 0 16 -7
23 -15z m403 -3 c15 -16 15 -19 2 -19 -8 0 -13 3 -10 5 3 3 -3 11 -13 18 -9 7
-12 14 -6 14 6 0 18 -8 27 -18z m38 1 c13 -15 12 -15 -8 -4 -24 12 -29 21 -14
21 5 0 15 -7 22 -17z m39 2 c19 -23 8 -25 -14 -4 -11 11 -15 19 -9 19 6 0 16
-7 23 -15z m43 -3 c15 -16 15 -19 2 -19 -8 0 -13 3 -10 5 3 3 -3 11 -13 18 -9
7 -12 14 -6 14 6 0 18 -8 27 -18z m40 0 c15 -16 15 -19 2 -19 -8 0 -13 3 -10
5 3 3 -3 11 -13 18 -9 7 -12 14 -6 14 6 0 18 -8 27 -18z m38 1 c13 -15 12 -15
-8 -4 -24 12 -29 21 -14 21 5 0 15 -7 22 -17z m39 2 c19 -23 8 -25 -14 -4 -11
11 -15 19 -9 19 6 0 16 -7 23 -15z m403 -3 c15 -16 15 -19 2 -19 -8 0 -13 3
-10 5 3 3 -3 11 -13 18 -9 7 -12 14 -6 14 6 0 18 -8 27 -18z m38 1 c13 -15 12
-15 -8 -4 -24 12 -29 21 -14 21 5 0 15 -7 22 -17z m39 2 c19 -23 8 -25 -14 -4
-11 11 -15 19 -9 19 6 0 16 -7 23 -15z m43 -3 c15 -16 15 -19 2 -19 -8 0 -13
3 -10 5 3 3 -3 11 -13 18 -9 7 -12 14 -6 14 6 0 18 -8 27 -18z m358 1 c13 -15
12 -15 -8 -4 -24 12 -29 21 -14 21 5 0 15 -7 22 -17z m40 0 c13 -15 12 -15 -8
-4 -24 12 -29 21 -14 21 5 0 15 -7 22 -17z m39 2 c19 -23 8 -25 -14 -4 -11 11
-15 19 -9 19 6 0 16 -7 23 -15z m280 5 c-8 -5 -18 -6 -22 -4 -12 8 -10 -10 3
-23 8 -8 7 -13 -3 -18 -7 -5 -10 -5 -6 0 4 4 3 14 -3 21 -14 17 -6 29 23 31
17 2 19 0 8 -7z m45 0 c3 -5 1 -10 -4 -10 -6 0 -11 5 -11 10 0 6 2 10 4 10 3
0 8 -4 11 -10z m76 -7 c13 -15 12 -15 -8 -4 -24 12 -29 21 -14 21 5 0 15 -7
22 -17z m39 2 c11 -13 11 -18 0 -28 -10 -9 -11 -9 -5 1 4 8 0 19 -11 27 -11 8
-14 15 -8 15 6 0 17 -7 24 -15z m40 0 c19 -23 8 -25 -14 -4 -11 11 -15 19 -9
19 6 0 16 -7 23 -15z m43 -3 c15 -16 15 -19 2 -19 -8 0 -13 3 -10 5 3 3 -3 11
-13 18 -9 7 -12 14 -6 14 6 0 18 -8 27 -18z m470 -5 c-4 -7 -8 -15 -8 -19 0
-3 -3 -9 -6 -12 -3 -4 -5 6 -3 21 3 36 2 35 14 28 6 -4 7 -12 3 -18z m41 2
c-3 -5 -10 -7 -15 -3 -5 3 -7 10 -3 15 3 5 10 7 15 3 5 -3 7 -10 3 -15z
m-7866 -2 c8 -10 6 -13 -7 -13 -11 0 -17 6 -14 13 3 7 6 13 8 13 1 0 7 -6 13
-13z m320 0 c8 -10 6 -13 -7 -13 -11 0 -17 6 -14 13 3 7 6 13 8 13 1 0 7 -6
13 -13z m960 0 c8 -10 6 -13 -7 -13 -11 0 -17 6 -14 13 3 7 6 13 8 13 1 0 7
-6 13 -13z m2240 0 c8 -10 6 -13 -7 -13 -11 0 -17 6 -14 13 3 7 6 13 8 13 1 0
7 -6 13 -13z m2092 -10 c0 -2 -8 -3 -18 -3 -10 0 -19 6 -19 13 0 8 6 9 19 2
10 -5 18 -11 18 -12z m640 0 c0 -2 -8 -3 -18 -3 -10 0 -19 6 -19 13 0 8 6 9
19 2 10 -5 18 -11 18 -12z m468 10 c8 -10 6 -13 -7 -13 -11 0 -17 6 -14 13 3
7 6 13 8 13 1 0 7 -6 13 -13z m-6907 -14 c13 -16 12 -17 -3 -4 -17 13 -22 21
-14 21 2 0 10 -8 17 -17z m1280 0 c13 -16 12 -17 -3 -4 -10 7 -18 15 -18 17 0
8 8 3 21 -13z m2240 0 c13 -16 12 -17 -3 -4 -17 13 -22 21 -14 21 2 0 10 -8
17 -17z m960 0 c13 -16 12 -17 -3 -4 -10 7 -18 15 -18 17 0 8 8 3 21 -13z
m2240 0 c13 -16 12 -17 -3 -4 -10 7 -18 15 -18 17 0 8 8 3 21 -13z m960 0 c13
-16 12 -17 -3 -4 -10 7 -18 15 -18 17 0 8 8 3 21 -13z m-8594 -8 c0 -8 -4 -12
-9 -9 -5 3 -6 10 -3 15 9 13 12 11 12 -6z m400 0 c0 -8 -4 -12 -9 -9 -5 3 -6
10 -3 15 9 13 12 11 12 -6z m118 6 c3 -5 2 -12 -3 -15 -5 -3 -9 1 -9 9 0 17 3
19 12 6z m362 -6 c0 -8 -4 -12 -9 -9 -5 3 -6 10 -3 15 9 13 12 11 12 -6z m800
0 c0 -8 -4 -12 -9 -9 -5 3 -6 10 -3 15 9 13 12 11 12 -6z m118 6 c3 -5 2 -12
-3 -15 -5 -3 -9 1 -9 9 0 17 3 19 12 6z m362 -6 c0 -8 -4 -12 -9 -9 -5 3 -6
10 -3 15 9 13 12 11 12 -6z m480 0 c0 -8 -4 -12 -9 -9 -5 3 -6 10 -3 15 9 13
12 11 12 -6z m118 6 c3 -5 2 -12 -3 -15 -5 -3 -9 1 -9 9 0 17 3 19 12 6z m522
-6 c0 -8 -4 -12 -9 -9 -5 3 -6 10 -3 15 9 13 12 11 12 -6z m118 6 c3 -5 2 -12
-3 -15 -5 -3 -9 1 -9 9 0 17 3 19 12 6z m442 -6 c0 -8 -4 -12 -9 -9 -5 3 -6
10 -3 15 9 13 12 11 12 -6z m320 0 c0 -8 -4 -12 -9 -9 -5 3 -6 10 -3 15 9 13
12 11 12 -6z m240 0 c0 -8 -4 -12 -9 -9 -5 3 -6 10 -3 15 9 13 12 11 12 -6z
m480 0 c0 -8 -4 -12 -9 -9 -5 3 -6 10 -3 15 9 13 12 11 12 -6z m118 6 c3 -5 2
-12 -3 -15 -5 -3 -9 1 -9 9 0 17 3 19 12 6z m362 -6 c0 -8 -4 -12 -9 -9 -5 3
-6 10 -3 15 9 13 12 11 12 -6z m400 0 c0 -8 -4 -12 -9 -9 -5 3 -6 10 -3 15 9
13 12 11 12 -6z m320 0 c0 -8 -4 -12 -9 -9 -5 3 -6 10 -3 15 9 13 12 11 12 -6z
m400 0 c0 -8 -4 -12 -9 -9 -5 3 -6 10 -3 15 9 13 12 11 12 -6z m118 6 c3 -5 2
-12 -3 -15 -5 -3 -9 1 -9 9 0 17 3 19 12 6z m522 -6 c0 -8 -4 -12 -9 -9 -5 3
-6 10 -3 15 9 13 12 11 12 -6z m118 6 c3 -5 2 -12 -3 -15 -5 -3 -9 1 -9 9 0
17 3 19 12 6z m362 -6 c0 -8 -4 -12 -9 -9 -5 3 -6 10 -3 15 9 13 12 11 12 -6z
m480 0 c0 -8 -4 -12 -9 -9 -5 3 -6 10 -3 15 9 13 12 11 12 -6z m480 0 c0 -8
-4 -12 -9 -9 -5 3 -6 10 -3 15 9 13 12 11 12 -6z m-7997 1 c0 -3 -4 -8 -10
-11 -5 -3 -10 -1 -10 4 0 6 5 11 10 11 6 0 10 -2 10 -4z m480 0 c0 -3 -4 -8
-10 -11 -5 -3 -10 -1 -10 4 0 6 5 11 10 11 6 0 10 -2 10 -4z m120 -6 c0 -5 -2
-10 -4 -10 -3 0 -8 5 -11 10 -3 6 -1 10 4 10 6 0 11 -4 11 -10z m80 6 c0 -2
-7 -7 -16 -10 -8 -3 -12 -2 -9 4 6 10 25 14 25 6z m120 0 c0 -3 -4 -8 -10 -11
-5 -3 -10 -1 -10 4 0 6 5 11 10 11 6 0 10 -2 10 -4z m480 0 c0 -3 -4 -8 -10
-11 -5 -3 -10 -1 -10 4 0 6 5 11 10 11 6 0 10 -2 10 -4z m480 0 c0 -3 -4 -8
-10 -11 -5 -3 -10 -1 -10 4 0 6 5 11 10 11 6 0 10 -2 10 -4z m480 0 c0 -3 -4
-8 -10 -11 -5 -3 -10 -1 -10 4 0 6 5 11 10 11 6 0 10 -2 10 -4z m640 0 c0 -3
-4 -8 -10 -11 -5 -3 -10 -1 -10 4 0 6 5 11 10 11 6 0 10 -2 10 -4z m1120 0 c0
-3 -4 -8 -10 -11 -5 -3 -10 -1 -10 4 0 6 5 11 10 11 6 0 10 -2 10 -4z m480 0
c0 -3 -4 -8 -10 -11 -5 -3 -10 -1 -10 4 0 6 5 11 10 11 6 0 10 -2 10 -4z m480
0 c0 -3 -4 -8 -10 -11 -5 -3 -10 -1 -10 4 0 6 5 11 10 11 6 0 10 -2 10 -4z
m1120 0 c0 -3 -4 -8 -10 -11 -5 -3 -10 -1 -10 4 0 6 5 11 10 11 6 0 10 -2 10
-4z m440 -6 c0 -5 -2 -10 -4 -10 -3 0 -8 5 -11 10 -3 6 -1 10 4 10 6 0 11 -4
11 -10z m200 6 c0 -3 -4 -8 -10 -11 -5 -3 -10 -1 -10 4 0 6 5 11 10 11 6 0 10
-2 10 -4z m480 0 c0 -3 -4 -8 -10 -11 -5 -3 -10 -1 -10 4 0 6 5 11 10 11 6 0
10 -2 10 -4z m280 -6 c0 -5 -2 -10 -4 -10 -3 0 -8 5 -11 10 -3 6 -1 10 4 10 6
0 11 -4 11 -10z m200 6 c0 -3 -4 -8 -10 -11 -5 -3 -10 -1 -10 4 0 6 5 11 10
11 6 0 10 -2 10 -4z m731 -39 c-10 -9 -11 -8 -5 6 3 10 9 15 12 12 3 -3 0 -11
-7 -18z m-9050 -29 c1 -7 1 -16 0 -20 0 -5 4 -8 9 -8 5 0 10 5 10 10 0 6 4 10
9 10 7 0 8 -14 2 -38 -1 -1 -10 2 -22 8 -11 7 -18 14 -15 17 3 4 1 12 -5 20
-9 9 -8 13 0 13 6 0 12 -6 12 -12z m49 -58 c-12 -8 -12 -10 -1 -10 8 0 12 -3
8 -6 -9 -9 -28 6 -22 17 4 5 12 9 18 9 7 0 6 -4 -3 -10z m27 -49 c0 -35 4 -40
21 -35 14 5 15 4 2 -5 -12 -8 -18 -6 -30 10 -19 28 -21 46 -5 46 7 0 12 -7 12
-16z m79 -133 c-1 -7 -5 -19 -9 -25 -5 -7 -4 -13 0 -13 5 0 15 6 22 13 11 10
11 8 0 -10 -15 -25 -39 -14 -34 15 2 9 4 20 4 25 1 4 5 7 10 7 5 0 8 -6 7 -12z
m8777 -23 c-3 -9 -8 -14 -10 -11 -3 3 -2 9 2 15 9 16 15 13 8 -4z m-73 -64 c0
-5 -7 -12 -16 -15 -14 -5 -15 -4 -4 9 14 17 20 19 20 6z m-8588 -123 c-9 -9
-15 -9 -24 1 -11 10 -10 11 5 6 10 -5 17 -2 17 6 0 7 3 9 7 6 4 -4 1 -13 -5
-19z m8526 2 c-7 -10 -14 -17 -17 -15 -4 4 18 35 25 35 2 0 -1 -9 -8 -20z
m-48 -161 c0 -5 -4 -8 -9 -4 -5 3 -12 1 -16 -4 -3 -5 -14 -9 -25 -8 -10 1 -16
5 -14 9 3 5 9 6 13 4 4 -3 13 -1 21 5 20 12 30 11 30 -2z m-8366 -55 c3 -8 2
-12 -4 -9 -6 3 -10 10 -10 16 0 14 7 11 14 -7z m36 -14 c0 -5 -2 -10 -4 -10
-3 0 -8 5 -11 10 -3 6 -1 10 4 10 6 0 11 -4 11 -10z m8230 -85 c7 -8 11 -15 9
-16 -25 -5 -51 -4 -55 3 -3 5 -2 8 3 7 4 -1 15 -1 23 0 13 1 13 2 0 11 -8 5
-10 10 -4 10 6 0 17 -7 24 -15z m-58 -57 c-8 -8 -9 -4 -5 13 4 13 8 18 11 10
2 -7 -1 -18 -6 -23z m-13 -42 c-3 -3 -11 5 -18 17 -13 21 -12 21 5 5 10 -10
16 -20 13 -22z m-8059 -16 c13 7 21 7 25 0 4 -6 3 -10 -2 -9 -20 3 -34 -2 -28
-11 4 -6 10 -8 14 -6 4 3 8 -7 9 -21 2 -21 0 -24 -13 -13 -8 7 -13 16 -10 20
2 4 -4 15 -15 25 -11 10 -16 23 -12 29 4 7 8 5 10 -6 3 -14 7 -16 22 -8z
m8023 -55 c0 -6 -7 -11 -16 -11 -16 -2 -16 -1 -1 3 14 4 15 7 3 15 -11 7 -11
9 -1 6 8 -2 14 -8 15 -13z m-17 -62 c-10 -11 -19 -7 -22 10 -2 15 0 16 12 6 8
-6 12 -14 10 -16z m-13 -44 c-3 -11 -9 -16 -14 -14 -4 3 -5 13 -2 22 4 10 2
14 -4 10 -5 -3 -10 0 -10 7 0 11 4 12 17 3 10 -6 15 -18 13 -28z m-7862 -92
c-10 -9 -11 -8 -5 6 3 10 9 15 12 12 3 -3 0 -11 -7 -18z m7768 -40 c8 -11 6
-18 -11 -33 -19 -17 -21 -17 -15 -1 6 16 -3 22 -26 18 -5 -1 -6 3 -2 9 4 7 12
7 25 0 27 -14 34 -12 20 5 -7 8 -10 15 -7 15 2 0 10 -6 16 -13z m-7685 -53 c3
-8 2 -12 -4 -9 -6 3 -10 10 -10 16 0 14 7 11 14 -7z m7609 -73 c3 8 5 4 3 -9
-1 -13 -9 -28 -17 -33 -8 -5 -9 -9 -4 -9 6 0 2 -7 -7 -14 -11 -8 -16 -22 -13
-35 3 -18 1 -20 -9 -12 -7 6 -15 8 -19 5 -3 -3 2 10 11 30 10 19 25 38 36 42
13 4 15 9 7 17 -6 6 -11 16 -11 22 0 5 4 4 9 -4 7 -11 9 -11 14 0z m-7509 -82
c-7 -13 -43 -17 -38 -5 2 6 13 12 24 12 10 0 17 -3 14 -7z m7381 -99 c3 -5 1
-10 -4 -10 -6 0 -11 5 -11 10 0 6 2 10 4 10 3 0 8 -4 11 -10z m-55 -100 c0 -5
-5 -10 -11 -10 -5 0 -7 5 -4 10 3 6 8 10 11 10 2 0 4 -4 4 -10z m34 1 c3 -5
-1 -14 -8 -20 -12 -10 -14 -9 -11 6 2 10 4 19 4 21 2 5 10 2 15 -7z m-7257
-31 c1 -11 -2 -20 -5 -20 -4 0 -8 9 -9 20 -1 11 2 20 5 20 4 0 8 -9 9 -20z
m7227 -25 c-10 -7 -22 -11 -27 -8 -12 7 0 19 23 20 21 2 21 1 4 -12z m-71 -80
c-3 -9 -8 -14 -10 -11 -3 3 -2 9 2 15 9 16 15 13 8 -4z m-33 -45 c0 -4 -7 -7
-15 -6 -23 3 -26 12 -5 13 11 1 20 -2 20 -7z m-6960 -102 c0 -11 -22 -10 -40
2 -11 8 -9 9 13 8 15 -1 27 -6 27 -10z m6950 1 c0 -4 -10 -6 -21 -4 -32 6 -34
13 -4 13 14 0 25 -4 25 -9z m-64 -41 c3 -4 -1 -5 -10 -4 -8 1 -18 5 -22 8 -3
4 1 5 10 4 8 -1 18 -5 22 -8z m-7 -54 c-12 -15 -29 -10 -28 9 0 9 2 8 6 -1 2
-6 9 -9 14 -6 6 3 5 12 -3 22 -12 15 -11 16 5 3 13 -10 15 -17 6 -27z m-36
-81 c-3 -7 -9 -11 -13 -8 -5 3 -23 -12 -40 -32 -21 -25 -27 -29 -19 -13 7 14
12 28 11 33 -1 4 4 6 11 5 6 -2 11 3 10 10 -2 6 0 11 5 11 22 -4 31 3 26 19
-5 13 -4 14 4 3 6 -8 8 -20 5 -28z m-80 -127 c7 3 3 -2 -8 -11 -11 -9 -19 -21
-17 -26 1 -6 -2 -8 -7 -5 -5 4 -4 16 2 31 7 13 14 20 15 15 2 -6 9 -8 15 -4z
m-90 -111 c-3 -9 -8 -14 -10 -11 -3 3 -2 9 2 15 9 16 15 13 8 -4z m-6433 -7
c0 -4 -7 -8 -15 -8 -8 0 -15 4 -15 8 0 5 7 9 15 9 8 0 15 -4 15 -9z m6424 -52
c2 -14 0 -23 -4 -21 -5 3 -11 -2 -14 -11 -6 -17 -26 -10 -26 9 0 8 3 8 9 -1 6
-10 10 -8 16 10 4 12 6 30 5 38 -1 8 1 12 5 8 4 -3 8 -18 9 -32z m-29 14 c3
-5 1 -10 -4 -10 -6 0 -11 5 -11 10 0 6 2 10 4 10 3 0 8 -4 11 -10z m-6315
-100 c0 -5 -4 -10 -10 -10 -5 0 -10 5 -10 10 0 6 5 10 10 10 6 0 10 -4 10 -10z
m6280 0 c0 -5 -5 -10 -11 -10 -5 0 -7 5 -4 10 3 6 8 10 11 10 2 0 4 -4 4 -10z
m-65 -120 c3 -5 1 -10 -4 -10 -6 0 -11 5 -11 10 0 6 2 10 4 10 3 0 8 -4 11
-10z m-6120 -39 c3 -5 0 -13 -6 -17 -8 -4 -7 -9 2 -15 11 -7 11 -9 1 -9 -7 0
-10 -5 -7 -10 4 -6 11 -8 16 -5 5 3 6 -1 3 -9 -6 -16 -25 -23 -23 -8 1 4 0 9
-1 12 -7 20 -7 41 2 46 6 4 5 10 -3 15 -10 6 -10 9 -2 9 6 0 14 -4 18 -9z
m6105 -44 c0 -5 -4 -6 -9 -2 -6 3 -14 -3 -20 -12 -9 -16 -10 -16 -8 4 0 12 5
19 9 17 4 -3 8 3 8 13 0 15 2 16 10 3 5 -8 10 -19 10 -23z m-6050 -51 c0 -2
-7 -7 -16 -10 -8 -3 -12 -2 -9 4 6 10 25 14 25 6z m5937 -76 c2 -23 -13 -35
-23 -19 -5 8 -3 9 6 4 10 -6 12 -4 7 7 -3 9 -3 19 0 22 9 8 9 8 10 -14z m-47
-132 c-14 -11 -17 -18 -9 -18 11 0 11 -2 -1 -10 -9 -5 -19 -5 -26 0 -6 6 -14
8 -17 5 -4 -3 -4 -2 -1 3 3 4 9 7 12 7 4 1 17 7 29 15 21 14 21 15 5 35 l-17
20 23 -20 24 -20 -22 -17z m-20 22 c0 -5 -5 -10 -11 -10 -5 0 -7 5 -4 10 3 6
8 10 11 10 2 0 4 -4 4 -10z m-29 -85 c5 4 6 -1 2 -10 -5 -13 -7 -14 -14 -3 -5
7 -8 18 -8 23 0 6 3 4 6 -3 2 -6 9 -10 14 -7z m-27 -37 c-5 -7 -2 -9 8 -5 18
6 19 -16 1 -34 -7 -7 -14 -4 -24 8 -13 16 -12 17 4 4 11 -9 17 -10 17 -2 0 6
-7 14 -16 18 -13 5 -13 7 -2 14 18 12 20 11 12 -3z m-5568 -96 c-3 -3 0 -12 6
-21 10 -13 10 -14 -2 -4 -16 15 -23 46 -8 37 5 -3 7 -9 4 -12z m5484 -62 c0
-5 -5 -10 -11 -10 -5 0 -7 5 -4 10 3 6 8 10 11 10 2 0 4 -4 4 -10z m-25 -20
c3 -5 1 -10 -4 -10 -6 0 -11 5 -11 10 0 6 2 10 4 10 3 0 8 -4 11 -10z m-35
-40 c0 -5 -5 -10 -11 -10 -5 0 -7 5 -4 10 3 6 8 10 11 10 2 0 4 -4 4 -10z
m-5263 -170 c-1 -10 -5 -16 -9 -14 -4 3 -8 -2 -8 -11 0 -9 4 -14 9 -10 5 3 12
1 15 -4 7 -11 -13 -9 -32 3 -11 6 -10 12 3 26 10 11 14 24 9 31 -4 7 -3 10 4
5 6 -3 10 -15 9 -26z m5143 -50 c0 -5 -5 -10 -11 -10 -5 0 -7 5 -4 10 3 6 8
10 11 10 2 0 4 -4 4 -10z m-2505 -88 c-3 -3 -11 0 -18 7 -9 10 -8 11 6 5 10
-3 15 -9 12 -12z m45 -57 c0 -1 -9 -5 -19 -8 -13 -3 -18 -1 -14 9 4 10 33 10
33 -1z m2423 2 c7 4 6 -1 -2 -10 -16 -20 -33 -13 -24 10 4 11 8 13 11 5 2 -7
9 -9 15 -5z m-38 -60 c3 -4 2 -5 -2 -2 -3 3 -12 0 -20 -7 -7 -6 -16 -8 -20 -4
-3 3 0 6 8 6 12 0 11 2 -1 10 -12 8 -10 9 7 7 12 -2 25 -6 28 -10z m-2345 -42
c0 -8 -2 -15 -4 -15 -2 0 -6 7 -10 15 -3 8 -1 15 4 15 6 0 10 -7 10 -15z
m-2576 -10 c-5 -11 -1 -14 12 -9 15 5 16 4 4 -4 -10 -8 -18 -8 -28 0 -11 9
-11 13 0 19 18 12 18 11 12 -6z m4829 -38 c4 3 7 1 7 -5 0 -17 -16 -15 -31 6
-12 15 -12 16 2 5 9 -7 19 -10 22 -6z m-2518 -39 c-14 -21 -51 -36 -39 -17 3
5 10 6 16 3 6 -4 9 -1 6 7 -3 8 -14 13 -24 11 -15 -2 -16 -1 -4 7 9 6 19 6 26
1 6 -6 14 -7 17 -3 4 3 -1 12 -11 20 -15 13 -15 13 6 3 21 -10 21 -13 7 -32z
m315 27 c-15 -18 1 -20 19 -2 11 10 11 8 0 -10 -10 -17 -17 -20 -32 -12 -18
10 -18 11 0 24 24 19 28 19 13 0z m-2533 -51 c-3 -3 -12 -4 -19 -1 -8 3 -5 6
6 6 11 1 17 -2 13 -5z m4658 -104 c3 -5 1 -10 -4 -10 -6 0 -11 5 -11 10 0 6 2
10 4 10 3 0 8 -4 11 -10z m-2565 -40 c-8 -5 -19 -10 -25 -10 -5 0 -3 5 5 10 8
5 20 10 25 10 6 0 3 -5 -5 -10z m2560 -35 c0 -4 -23 -2 -48 4 -2 1 0 6 3 11 6
10 45 -4 45 -15z m-1976 -11 c3 -8 2 -12 -4 -9 -6 3 -10 10 -10 16 0 14 7 11
14 -7z m-587 -29 c4 -4 3 -5 -4 -1 -7 3 -14 -2 -18 -13 -3 -11 -13 -25 -22
-33 -15 -12 -15 -11 -5 8 6 12 8 25 4 29 -4 5 -1 4 7 0 11 -6 13 -4 8 7 -6 17
16 19 30 3z m-71 -40 c1 -8 -2 -15 -6 -15 -5 0 -8 9 -7 20 1 21 10 18 13 -5z
m728 -71 c3 -8 2 -12 -4 -9 -6 3 -10 1 -10 -5 0 -6 -4 -8 -10 -5 -5 3 -10 11
-10 16 0 6 5 7 10 4 6 -3 10 -1 10 4 0 16 7 13 14 -5z m1811 4 c4 4 3 -3 -4
-15 -10 -20 -32 -25 -47 -10 -4 3 3 5 15 2 11 -2 21 0 21 6 0 5 -4 9 -10 9 -5
0 -10 5 -10 11 0 8 4 9 13 0 8 -6 17 -7 22 -3z m-4353 -52 c4 3 9 1 12 -4 3
-6 -1 -9 -10 -8 -9 1 -21 11 -26 22 -9 18 -8 18 5 2 8 -10 16 -15 19 -12z
m2575 -1 c0 -8 -6 -16 -13 -19 -7 -3 -10 2 -7 15 6 22 20 26 20 4z m1719 -10
c-3 -8 0 -15 6 -15 21 0 -10 -24 -34 -26 -13 -2 -17 0 -10 2 6 3 9 11 5 17 -4
7 1 5 11 -2 16 -13 18 -13 16 0 -3 22 -1 39 6 39 3 0 4 -7 0 -15z m-4301 -23
c-3 -3 -11 0 -18 7 -9 10 -8 11 6 5 10 -3 15 -9 12 -12z m1725 -6 c0 -3 -4 -8
-10 -11 -5 -3 -10 -1 -10 4 0 6 5 11 10 11 6 0 10 -2 10 -4z m2505 -66 c-3 -5
-12 -10 -18 -10 -7 0 -6 4 3 10 19 12 23 12 15 0z m-2536 -62 c-8 -15 -13 -17
-25 -7 -8 6 -14 14 -14 16 0 3 8 -1 17 -8 14 -12 16 -12 11 2 -4 9 -1 16 7 16
11 0 11 -5 4 -19z m2505 -10 c-5 -15 -3 -19 7 -13 8 5 11 4 6 -1 -15 -16 -22
-10 -22 18 -1 15 3 24 7 21 5 -2 6 -14 2 -25z m-4060 -47 c3 -5 -1 -11 -9 -14
-9 -4 -12 -1 -8 9 6 16 10 17 17 5z m19 -36 c-3 -9 -8 -14 -10 -11 -3 3 -2 9
2 15 9 16 15 13 8 -4z m1445 -30 c-3 -3 -9 2 -12 12 -6 14 -5 15 5 6 7 -7 10
-15 7 -18z m2457 -95 c3 -5 1 -10 -4 -10 -6 0 -11 5 -11 10 0 6 2 10 4 10 3 0
8 -4 11 -10z m-1227 -55 c-3 -3 -9 2 -12 12 -6 14 -5 15 5 6 7 -7 10 -15 7
-18z m27 -33 c-3 -3 -11 0 -18 7 -9 10 -8 11 6 5 10 -3 15 -9 12 -12z m-1375
-36 c0 -2 -7 -7 -16 -10 -8 -3 -12 -2 -9 4 6 10 25 14 25 6z m-10 -36 c-20
-13 -33 -13 -25 0 3 6 14 10 23 10 15 0 15 -2 2 -10z m2547 -15 c0 -6 -6 -12
-12 -12 -6 0 -12 6 -12 12 0 6 6 12 12 12 6 0 12 -6 12 -12z m-37 -7 c0 -4 -4
-8 -9 -8 -6 0 -12 4 -15 8 -3 5 1 9 9 9 8 0 15 -4 15 -9z m-3647 -25 c-7 -3
-13 -9 -13 -14 0 -6 4 -7 10 -4 5 3 18 1 27 -5 15 -9 14 -10 -7 -4 -22 6 -23
5 -12 -9 8 -9 21 -13 30 -10 14 5 15 3 4 -8 -10 -11 -17 -9 -39 13 -22 23 -24
29 -13 43 7 8 16 13 19 9 3 -4 0 -9 -6 -11z m3639 -9 c-10 -26 -21 -38 -29
-30 -4 5 -2 11 5 13 9 4 10 8 2 18 -9 10 -7 13 7 11 10 -2 16 -7 15 -12z
m-1004 -99 c-3 -3 -9 2 -12 12 -6 14 -5 15 5 6 7 -7 10 -15 7 -18z m-1610 -30
c-3 -3 -9 2 -12 12 -6 14 -5 15 5 6 7 -7 10 -15 7 -18z m-23 5 c3 -5 1 -10 -4
-10 -6 0 -11 5 -11 10 0 6 2 10 4 10 3 0 8 -4 11 -10z m1660 0 c3 -6 -1 -7 -9
-4 -18 7 -21 14 -7 14 6 0 13 -4 16 -10z m925 1 c0 -5 -9 -12 -20 -16 -11 -3
-19 -11 -17 -17 1 -6 -5 -13 -13 -15 -13 -4 -13 -3 0 6 13 9 12 11 -5 12 -17
1 -17 2 -2 6 9 2 15 9 12 14 -3 5 0 6 8 3 8 -3 18 -1 22 5 8 13 15 14 15 2z
m-2575 -34 c-28 -16 -44 -17 -52 -5 -3 6 -1 8 5 4 6 -3 13 -3 16 2 2 4 15 8
28 9 22 2 22 1 3 -10z m-25 -72 c-7 -9 -15 -13 -17 -11 -3 2 -13 -4 -24 -15
-10 -10 -25 -19 -31 -18 -7 0 -3 5 9 11 13 6 25 19 28 29 4 11 16 19 27 19 17
0 18 -2 8 -15z m1725 -5 c-1 -17 -20 -26 -20 -10 0 6 -6 15 -14 19 -10 7 -7 9
11 8 15 -1 24 -8 23 -17z m32 5 c0 -8 -4 -12 -9 -9 -5 3 -6 10 -3 15 9 13 12
11 12 -6z m-1817 -9 c0 -3 -4 -8 -10 -11 -5 -3 -10 -1 -10 4 0 6 5 11 10 11 6
0 10 -2 10 -4z m2530 -131 c0 -12 -19 -12 -23 0 -4 9 -1 12 9 8 7 -3 14 -7 14
-8z m-3178 -102 c8 -10 18 -25 22 -33 4 -8 0 -6 -9 5 -9 11 -24 19 -33 18 -11
-2 -12 0 -3 4 11 4 11 7 0 14 -8 5 -9 9 -3 9 6 0 18 -8 26 -17z m527 -19 c-12
-13 -27 -24 -33 -24 -6 0 -3 5 7 11 9 6 14 15 11 21 -5 7 -2 8 6 3 10 -6 12
-4 7 8 -4 11 -2 14 9 10 13 -5 11 -10 -7 -29z m2068 -29 c0 -8 -4 -15 -9 -15
-10 0 -11 14 -1 23 9 10 10 9 10 -8z m-2538 -36 c-7 -13 -5 -19 9 -23 14 -4
14 -5 -2 -3 -22 2 -31 44 -10 44 9 0 10 -5 3 -18z m44 -93 c3 -8 0 -17 -7 -19
-10 -4 -12 1 -9 14 6 23 9 24 16 5z m47 0 c0 -2 -8 -10 -17 -17 -16 -13 -17
-12 -4 4 13 16 21 21 21 13z m2795 -84 c-3 -3 -11 0 -18 7 -9 10 -8 11 6 5 10
-3 15 -9 12 -12z m-50 -71 c3 -5 2 -12 -3 -15 -5 -3 -9 1 -9 9 0 17 3 19 12 6z
m-2580 -21 c-4 -6 -1 -19 6 -28 12 -16 12 -16 -5 0 -16 14 -15 38 0 38 3 0 2
-5 -1 -10z m2555 0 c0 -5 -2 -10 -4 -10 -3 0 -8 5 -11 10 -3 6 -1 10 4 10 6 0
11 -4 11 -10z"/>
<path d="M145 7550 c-3 -6 1 -7 9 -4 18 7 21 14 7 14 -6 0 -13 -4 -16 -10z"/>
<path d="M183 7547 c-3 -6 -1 -7 5 -3 6 3 14 2 17 -4 5 -8 11 -8 19 -1 7 6 16
9 19 6 4 -3 5 -2 2 2 -9 11 -55 11 -62 0z"/>
<path d="M583 7547 c-3 -6 -1 -7 5 -3 6 3 14 2 17 -4 5 -8 11 -8 19 -1 7 6 16
9 19 6 4 -3 5 -2 2 2 -9 11 -55 11 -62 0z"/>
<path d="M1105 7550 c-3 -6 1 -7 9 -4 18 7 21 14 7 14 -6 0 -13 -4 -16 -10z"/>
<path d="M1143 7547 c-3 -6 -1 -7 5 -3 6 3 14 2 17 -4 4 -7 11 -7 18 -2 7 5
20 8 30 6 11 -1 16 0 12 4 -10 10 -75 9 -82 -1z"/>
<path d="M1425 7550 c-3 -6 1 -7 9 -4 18 7 21 14 7 14 -6 0 -13 -4 -16 -10z"/>
<path d="M1863 7547 c-3 -6 -1 -7 5 -3 6 3 14 2 17 -4 5 -8 11 -8 19 -1 7 6
16 9 19 6 4 -3 5 -2 2 2 -9 11 -55 11 -62 0z"/>
<path d="M2385 7550 c-3 -6 1 -7 9 -4 18 7 21 14 7 14 -6 0 -13 -4 -16 -10z"/>
<path d="M2823 7547 c-3 -6 -1 -7 5 -3 6 3 14 2 17 -4 5 -8 11 -8 19 -1 7 6
16 9 19 6 4 -3 5 -2 2 2 -9 11 -55 11 -62 0z"/>
<path d="M3463 7547 c-3 -6 -1 -7 5 -3 6 3 14 2 17 -4 5 -8 11 -8 19 -1 7 6
16 9 19 6 4 -3 5 -2 2 2 -9 11 -55 11 -62 0z"/>
<path d="M3943 7546 c-3 -5 -1 -6 5 -2 6 3 14 2 17 -4 5 -8 11 -8 19 -1 7 6
22 9 34 6 12 -2 24 0 26 4 3 4 -18 7 -45 7 -28 0 -53 -4 -56 -10z"/>
<path d="M4063 7546 c-4 -6 -3 -8 2 -4 4 4 14 3 20 -2 9 -7 16 -6 23 3 9 10 6
13 -14 13 -14 0 -28 -5 -31 -10z"/>
<path d="M4263 7546 c-3 -5 -1 -6 5 -2 6 3 14 2 17 -4 5 -8 11 -8 19 -1 7 6
22 9 34 6 12 -2 24 0 26 4 3 4 -18 7 -45 7 -28 0 -53 -4 -56 -10z"/>
<path d="M4383 7546 c-4 -6 -3 -8 2 -4 4 4 14 3 20 -2 9 -7 16 -6 23 3 9 10 6
13 -14 13 -14 0 -28 -5 -31 -10z"/>
<path d="M4625 7550 c-3 -6 1 -7 9 -4 18 7 21 14 7 14 -6 0 -13 -4 -16 -10z"/>
<path d="M5063 7547 c-3 -6 -1 -7 5 -3 6 3 14 2 17 -4 5 -8 11 -8 19 -1 7 6
16 9 19 6 4 -3 5 -2 2 2 -9 11 -55 11 -62 0z"/>
<path d="M5585 7550 c-3 -6 1 -7 9 -4 18 7 21 14 7 14 -6 0 -13 -4 -16 -10z"/>
<path d="M5863 7546 c-3 -5 -1 -6 5 -2 6 3 14 2 17 -4 5 -8 11 -8 19 -1 7 6
22 9 34 6 12 -2 24 0 26 4 3 4 -18 7 -45 7 -28 0 -53 -4 -56 -10z"/>
<path d="M5983 7546 c-4 -6 -3 -8 2 -4 4 4 14 3 20 -2 9 -7 16 -6 23 3 9 10 6
13 -14 13 -14 0 -28 -5 -31 -10z"/>
<path d="M6183 7546 c-3 -5 -1 -6 5 -2 6 3 14 2 17 -4 5 -8 11 -8 19 -1 7 6
22 9 34 6 12 -2 24 0 26 4 3 4 -18 7 -45 7 -28 0 -53 -4 -56 -10z"/>
<path d="M6303 7546 c-4 -6 -3 -8 2 -4 4 4 14 3 20 -2 9 -7 16 -6 23 3 9 10 6
13 -14 13 -14 0 -28 -5 -31 -10z"/>
<path d="M6663 7547 c-3 -6 -1 -7 5 -3 6 3 14 2 17 -4 5 -8 11 -8 19 -1 7 6
16 9 19 6 4 -3 5 -2 2 2 -9 11 -55 11 -62 0z"/>
<path d="M7303 7547 c-3 -6 -1 -7 5 -3 6 3 14 2 17 -4 5 -8 11 -8 19 -1 7 6
16 9 19 6 4 -3 5 -2 2 2 -9 11 -55 11 -62 0z"/>
<path d="M7825 7550 c-3 -6 1 -7 9 -4 18 7 21 14 7 14 -6 0 -13 -4 -16 -10z"/>
<path d="M8263 7547 c-3 -6 -1 -7 5 -3 6 3 14 2 17 -4 5 -8 11 -8 19 -1 7 6
16 9 19 6 4 -3 5 -2 2 2 -9 11 -55 11 -62 0z"/>
<path d="M8785 7550 c-3 -6 1 -7 9 -4 18 7 21 14 7 14 -6 0 -13 -4 -16 -10z"/>
<path d="M8823 7547 c-3 -6 -1 -7 5 -3 6 3 14 2 17 -4 5 -8 11 -8 19 -1 7 6
16 9 19 6 4 -3 5 -2 2 2 -9 11 -55 11 -62 0z"/>
<path d="M8907 7543 c3 -7 10 -10 17 -6 6 4 17 8 24 9 29 5 21 11 -11 10 -23
-1 -33 -5 -30 -13z"/>
<path d="M8983 7546 c-4 -6 -3 -8 2 -4 4 4 14 3 20 -2 9 -7 16 -6 23 3 9 10 6
13 -14 13 -14 0 -28 -5 -31 -10z"/>
<path d="M9186 7541 c-6 -10 22 -37 29 -29 8 7 -5 38 -15 38 -5 0 -11 -4 -14
-9z"/>
<path d="M9250 7541 c0 -6 4 -13 10 -16 6 -3 7 1 4 9 -7 18 -14 21 -14 7z"/>
<path d="M9237 7513 c-10 -9 -9 -23 1 -23 5 0 9 7 9 15 0 17 -1 18 -10 8z"/>
<path d="M9145 7370 c-3 -5 -1 -10 4 -10 6 0 11 5 11 10 0 6 -2 10 -4 10 -3 0
-8 -4 -11 -10z"/>
<path d="M9150 7341 c0 -6 4 -12 8 -15 5 -3 9 1 9 9 0 8 -4 15 -9 15 -4 0 -8
-4 -8 -9z"/>
<path d="M9105 7280 c-3 -5 -3 -10 1 -10 4 0 -3 -11 -15 -24 -18 -19 -19 -25
-8 -29 9 -3 14 1 13 11 0 9 10 22 24 29 22 11 23 13 5 13 -17 0 -17 2 -5 10 9
6 10 10 3 10 -6 0 -15 -4 -18 -10z"/>
<path d="M150 7260 c0 -5 7 -7 15 -4 8 4 15 8 15 10 0 2 -7 4 -15 4 -8 0 -15
-4 -15 -10z"/>
<path d="M9110 7229 c0 -5 5 -7 10 -4 6 3 10 8 10 11 0 2 -4 4 -10 4 -5 0 -10
-5 -10 -11z"/>
<path d="M9050 7216 c0 -2 8 -10 18 -17 15 -13 16 -12 3 4 -13 16 -21 21 -21
13z"/>
<path d="M8983 7067 c0 -12 1 -16 4 -8 5 11 7 11 14 0 5 -8 9 -9 9 -3 0 6 -6
16 -13 22 -10 8 -13 6 -14 -11z"/>
<path d="M310 7022 c0 -5 7 -9 15 -9 8 0 12 4 9 9 -3 4 -9 8 -15 8 -5 0 -9 -4
-9 -8z"/>
<path d="M8949 7028 c-8 -26 -4 -40 14 -49 20 -9 20 -9 5 4 -17 13 -16 15 5
26 l22 11 -24 -6 c-16 -4 -21 -3 -17 5 4 6 5 11 2 11 -3 0 -6 -1 -7 -2z"/>
<path d="M315 6991 c-3 -5 -2 -12 3 -15 5 -3 9 1 9 9 0 17 -3 19 -12 6z"/>
<path d="M8950 6960 c0 -5 5 -10 11 -10 5 0 7 5 4 10 -3 6 -8 10 -11 10 -2 0
-4 -4 -4 -10z"/>
<path d="M460 6820 c0 -5 5 -10 11 -10 5 0 7 5 4 10 -3 6 -8 10 -11 10 -2 0
-4 -4 -4 -10z"/>
<path d="M440 6811 c0 -6 4 -13 10 -16 6 -3 7 1 4 9 -7 18 -14 21 -14 7z"/>
<path d="M8807 6779 c10 -10 9 -16 -3 -30 -14 -16 -14 -17 2 -15 23 4 28 42 6
51 -13 5 -14 4 -5 -6z"/>
<path d="M515 6720 c-3 -5 -1 -10 4 -10 6 0 11 5 11 10 0 6 -2 10 -4 10 -3 0
-8 -4 -11 -10z"/>
<path d="M541 6604 c0 -11 3 -14 6 -6 3 7 2 16 -1 19 -3 4 -6 -2 -5 -13z"/>
<path d="M634 6452 c0 -10 6 -19 13 -19 8 0 9 6 2 19 -5 10 -11 18 -12 18 -2
0 -3 -8 -3 -18z"/>
<path d="M707 6413 c-10 -9 -9 -23 1 -23 5 0 9 7 9 15 0 17 -1 18 -10 8z"/>
<path d="M712 6341 c2 -7 7 -12 11 -12 12 1 9 15 -3 20 -7 2 -11 -2 -8 -8z"/>
<path d="M736 6267 c3 -10 9 -15 12 -12 3 3 0 11 -7 18 -10 9 -11 8 -5 -6z"/>
<path d="M775 6220 c-3 -5 -2 -10 4 -10 5 0 13 5 16 10 3 6 2 10 -4 10 -5 0
-13 -4 -16 -10z"/>
<path d="M8550 6220 c0 -5 5 -10 11 -10 5 0 7 5 4 10 -3 6 -8 10 -11 10 -2 0
-4 -4 -4 -10z"/>
<path d="M820 6140 c0 -5 7 -7 15 -4 8 4 15 8 15 10 0 2 -7 4 -15 4 -8 0 -15
-4 -15 -10z"/>
<path d="M850 6115 c0 -9 5 -15 11 -13 6 2 11 8 11 13 0 5 -5 11 -11 13 -6 2
-11 -4 -11 -13z"/>
<path d="M8470 6091 c0 -6 4 -13 10 -16 6 -3 7 1 4 9 -7 18 -14 21 -14 7z"/>
<path d="M856 6082 c-2 -4 4 -9 15 -9 11 -1 17 2 14 8 -7 11 -22 12 -29 1z"/>
<path d="M8323 5907 c-8 -17 -8 -24 0 -24 7 0 13 11 13 24 2 29 0 29 -13 0z"/>
<path d="M8240 5740 c-13 -8 -13 -10 2 -10 9 0 20 5 23 10 8 13 -5 13 -25 0z"/>
<path d="M1110 5670 c0 -5 5 -10 11 -10 5 0 7 5 4 10 -3 6 -8 10 -11 10 -2 0
-4 -4 -4 -10z"/>
<path d="M8186 5661 c-4 -5 -2 -12 3 -15 5 -4 12 -2 15 3 4 5 2 12 -3 15 -5 4
-12 2 -15 -3z"/>
<path d="M8146 5538 c3 -5 10 -6 15 -3 13 9 11 12 -6 12 -8 0 -12 -4 -9 -9z"/>
<path d="M8120 5480 c-9 -6 -10 -10 -3 -10 6 0 15 5 18 10 8 12 4 12 -15 0z"/>
<path d="M1374 5166 c1 -8 5 -18 8 -22 4 -3 5 1 4 10 -1 8 -5 18 -8 22 -4 3
-5 -1 -4 -10z"/>
<path d="M7906 5162 c-2 -4 1 -18 8 -31 12 -22 13 -22 13 8 0 29 -10 40 -21
23z"/>
<path d="M1415 5120 c-3 -6 1 -7 9 -4 18 7 21 14 7 14 -6 0 -13 -4 -16 -10z"/>
<path d="M7834 5006 c1 -8 5 -18 8 -22 4 -3 5 1 4 10 -1 8 -5 18 -8 22 -4 3
-5 -1 -4 -10z"/>
<path d="M7806 4968 c3 -5 10 -6 15 -3 13 9 11 12 -6 12 -8 0 -12 -4 -9 -9z"/>
<path d="M1673 4665 c0 -8 5 -13 11 -12 6 1 10 -4 8 -11 -1 -8 2 -11 7 -7 6 3
8 12 5 20 -8 19 -31 26 -31 10z"/>
<path d="M1717 4636 c-3 -7 0 -19 6 -25 14 -14 -4 -15 -21 -1 -7 5 -6 3 2 -6
17 -20 43 -9 26 11 -8 10 -8 14 2 17 8 3 9 6 1 11 -6 4 -13 1 -16 -7z"/>
<path d="M7602 4596 c7 -8 15 -12 17 -11 5 6 -10 25 -20 25 -5 0 -4 -6 3 -14z"/>
<path d="M7590 4538 c0 -4 4 -8 9 -8 6 0 12 4 15 8 3 5 -1 9 -9 9 -8 0 -15 -4
-15 -9z"/>
<path d="M1773 4503 c4 -3 2 -12 -4 -19 -8 -10 -6 -11 15 -1 16 8 21 14 13 19
-15 9 -33 10 -24 1z"/>
<path d="M1811 4459 c13 -11 23 -27 21 -35 -2 -8 2 -14 8 -14 6 0 8 -5 4 -12
-4 -7 -3 -8 5 -4 9 6 9 11 0 22 -6 8 -8 14 -3 14 4 0 -3 11 -16 25 -13 14 -28
25 -33 25 -6 0 1 -9 14 -21z"/>
<path d="M1920 4280 c-12 -7 -12 -12 -2 -22 6 -6 12 -10 13 -7 0 2 2 12 4 22
4 20 4 19 -15 7z"/>
<path d="M7392 4239 c3 -8 2 -21 -3 -30 -5 -11 -3 -16 6 -16 8 0 11 5 8 10 -3
5 -1 12 5 16 6 4 4 11 -6 20 -13 12 -14 12 -10 0z"/>
<path d="M7267 3999 c7 -7 15 -10 18 -7 3 3 -2 9 -12 12 -14 6 -15 5 -6 -5z"/>
<path d="M2090 3960 c0 -5 6 -10 13 -10 8 0 7 -4 -3 -11 -12 -8 -10 -9 7 -4
18 5 22 3 17 -9 -3 -9 -4 -16 -1 -16 3 0 7 6 10 14 3 9 -4 21 -19 30 -13 9
-24 12 -24 6z"/>
<path d="M7245 3940 c-3 -6 1 -7 9 -4 18 7 21 14 7 14 -6 0 -13 -4 -16 -10z"/>
<path d="M2093 3905 c0 -8 4 -12 9 -9 5 3 6 10 3 15 -9 13 -12 11 -12 -6z"/>
<path d="M4670 3890 c14 -10 27 -17 29 -14 6 5 -31 33 -44 33 -5 1 1 -8 15
-19z"/>
<path d="M4654 3846 c1 -8 5 -18 8 -22 4 -3 5 1 4 10 -1 8 -5 18 -8 22 -4 3
-5 -1 -4 -10z"/>
<path d="M4756 3838 c3 -4 9 -8 15 -8 5 0 9 4 9 8 0 5 -7 9 -15 9 -8 0 -12 -4
-9 -9z"/>
<path d="M4622 3809 c-7 -11 -17 -17 -22 -14 -5 3 -11 1 -14 -4 -3 -5 4 -11
15 -14 12 -3 18 -3 15 0 -3 3 4 14 15 24 11 9 16 20 11 22 -4 3 -14 -3 -20
-14z"/>
<path d="M7095 3679 c-4 -6 -5 -12 -2 -15 2 -3 7 2 10 11 7 17 1 20 -8 4z"/>
<path d="M2230 3658 c0 -4 4 -8 9 -8 6 0 12 4 15 8 3 5 -1 9 -9 9 -8 0 -15 -4
-15 -9z"/>
<path d="M4560 3660 c-9 -6 -10 -10 -3 -10 6 0 15 5 18 10 8 12 4 12 -15 0z"/>
<path d="M2300 3636 c0 -2 8 -10 18 -17 15 -13 16 -12 3 4 -13 16 -21 21 -21
13z"/>
<path d="M4495 3631 c-3 -5 0 -13 6 -17 7 -4 9 -3 5 4 -3 5 0 13 6 15 9 4 10
6 1 6 -6 1 -14 -3 -18 -8z"/>
<path d="M7040 3622 c-9 -4 -15 -14 -15 -22 1 -8 -2 -20 -6 -25 -5 -7 1 -11
14 -12 16 -2 18 0 8 6 -11 7 -10 10 5 14 18 4 18 5 -1 6 -19 1 -18 3 5 21 25
19 20 25 -10 12z"/>
<path d="M4471 3514 c0 -11 3 -14 6 -6 3 7 2 16 -1 19 -3 4 -6 -2 -5 -13z"/>
<path d="M4960 3440 c-13 -8 -12 -10 3 -10 12 0 16 -4 11 -12 -4 -7 -3 -9 1
-5 11 9 16 37 7 37 -4 0 -14 -5 -22 -10z"/>
<path d="M6946 3402 c-3 -5 1 -9 9 -9 8 0 12 4 9 9 -3 4 -7 8 -9 8 -2 0 -6 -4
-9 -8z"/>
<path d="M4346 3354 c-4 -10 0 -23 9 -31 8 -7 10 -8 5 -1 -15 18 -12 28 8 22
10 -4 13 -2 7 3 -5 4 -13 12 -16 16 -4 4 -10 0 -13 -9z"/>
<path d="M2464 3352 c4 -7 1 -12 -6 -12 -10 0 -10 -2 1 -9 9 -6 10 -10 2 -14
-8 -4 -8 -5 0 -3 16 3 20 34 7 43 -7 3 -8 1 -4 -5z"/>
<path d="M5046 3275 c4 -8 8 -15 10 -15 2 0 4 7 4 15 0 8 -4 15 -10 15 -5 0
-7 -7 -4 -15z"/>
<path d="M4276 3241 c-12 -13 -14 -21 -6 -26 6 -4 9 -14 6 -22 -4 -8 -1 -11 5
-8 6 4 8 13 5 20 -6 16 17 38 30 27 4 -4 2 1 -5 11 -16 21 -14 21 -35 -2z m24
5 c0 -2 -8 -10 -17 -17 -16 -13 -17 -12 -4 4 13 16 21 21 21 13z"/>
<path d="M6810 3179 c0 -5 5 -7 10 -4 6 3 10 8 10 11 0 2 -4 4 -10 4 -5 0 -10
-5 -10 -11z"/>
<path d="M2557 3173 c-10 -9 -9 -23 1 -23 5 0 9 7 9 15 0 17 -1 18 -10 8z"/>
<path d="M5130 3160 c0 -5 5 -10 11 -10 5 0 7 5 4 10 -3 6 -8 10 -11 10 -2 0
-4 -4 -4 -10z"/>
<path d="M2561 3123 c7 -12 15 -20 18 -17 3 2 -3 12 -13 22 -17 16 -18 16 -5
-5z"/>
<path d="M6790 3129 c0 -5 5 -7 10 -4 6 3 10 8 10 11 0 2 -4 4 -10 4 -5 0 -10
-5 -10 -11z"/>
<path d="M2610 3086 c0 -9 5 -16 10 -16 6 0 10 4 10 9 0 6 -4 13 -10 16 -5 3
-10 -1 -10 -9z"/>
<path d="M2576 3078 c3 -5 10 -6 15 -3 13 9 11 12 -6 12 -8 0 -12 -4 -9 -9z"/>
<path d="M4159 3033 c0 -5 -2 -18 -3 -30 -1 -12 1 -20 4 -18 8 5 11 55 4 55
-2 0 -4 -3 -5 -7z"/>
<path d="M5233 2955 c0 -8 4 -12 9 -9 5 3 6 10 3 15 -9 13 -12 11 -12 -6z"/>
<path d="M2675 2930 c3 -5 8 -10 11 -10 2 0 4 5 4 10 0 6 -5 10 -11 10 -5 0
-7 -4 -4 -10z"/>
<path d="M6675 2929 c-4 -6 -5 -12 -2 -15 2 -3 7 2 10 11 7 17 1 20 -8 4z"/>
<path d="M2720 2882 c0 -6 6 -13 13 -15 6 -3 3 -6 -8 -7 -19 -1 -18 -2 2 -10
16 -7 21 -14 16 -27 -3 -10 -3 -15 1 -12 16 14 13 48 -5 65 -10 9 -19 12 -19
6z"/>
<path d="M4056 2844 c-20 -19 -20 -20 -2 -27 10 -4 13 -1 10 8 -4 10 0 13 16
10 18 -3 20 -2 10 10 -15 18 -15 18 -34 -1z"/>
<path d="M6576 2832 c-3 -5 1 -9 9 -9 8 0 12 4 9 9 -3 4 -7 8 -9 8 -2 0 -6 -4
-9 -8z"/>
<path d="M5324 2799 c-4 -7 -3 -10 4 -5 6 3 15 -2 21 -11 5 -10 12 -15 15 -12
4 3 -2 14 -13 23 -14 13 -21 14 -27 5z"/>
<path d="M6573 2788 c-2 -18 0 -20 7 -8 12 18 13 30 2 30 -4 0 -9 -10 -9 -22z"/>
<path d="M5355 2700 c3 -5 8 -10 11 -10 2 0 4 5 4 10 0 6 -5 10 -11 10 -5 0
-7 -4 -4 -10z"/>
<path d="M6473 2623 c4 -3 0 -15 -10 -25 -9 -10 -11 -18 -6 -18 6 0 14 7 17
16 3 8 10 12 16 9 6 -3 7 1 4 9 -3 9 -11 16 -17 16 -6 0 -7 -3 -4 -7z"/>
<path d="M2896 2573 c-13 -13 -5 -21 19 -19 14 0 25 2 25 3 0 7 -38 21 -44 16z"/>
<path d="M5510 2510 c-8 -5 -12 -11 -9 -14 3 -3 14 1 25 9 21 16 8 20 -16 5z"/>
<path d="M2947 2478 c6 -7 9 -21 8 -30 -4 -21 10 -24 18 -5 5 13 -15 47 -28
47 -4 0 -3 -6 2 -12z"/>
<path d="M6395 2481 c-6 -11 13 -26 22 -17 4 3 1 6 -6 6 -7 0 -9 5 -6 10 3 6
4 10 1 10 -3 0 -7 -4 -11 -9z"/>
<path d="M5516 2427 c3 -10 9 -15 12 -12 3 3 0 11 -7 18 -10 9 -11 8 -5 -6z"/>
<path d="M2990 2421 c0 -7 -5 -9 -12 -5 -7 4 -8 3 -4 -4 4 -6 14 -8 23 -5 10
4 14 2 9 -5 -3 -6 -2 -14 4 -17 8 -5 7 -12 -2 -23 -9 -11 -9 -13 -1 -9 15 9
37 -28 27 -46 -4 -6 -4 -9 1 -5 14 13 37 -13 25 -28 -8 -9 -7 -12 4 -10 28 4
30 16 7 32 -12 9 -20 22 -17 30 3 7 -3 18 -12 23 -14 8 -14 11 -2 11 12 0 11
3 -3 11 -9 6 -15 14 -12 18 2 5 -4 16 -15 26 -13 11 -20 14 -20 6z"/>
<path d="M6333 2413 c-10 -3 -9 -10 2 -27 8 -12 13 -25 10 -28 -3 -2 2 -5 10
-5 11 0 12 4 5 11 -18 18 -11 27 13 15 19 -10 20 -9 7 2 -8 8 -19 19 -25 25
-5 7 -16 10 -22 7z"/>
<path d="M3744 2285 c0 -24 3 -32 14 -28 11 5 11 7 0 15 -10 7 -10 11 0 15 16
6 16 20 -1 26 -8 3 -12 -6 -13 -28z"/>
<path d="M3715 2219 c-11 -16 -1 -19 13 -3 7 8 8 14 3 14 -5 0 -13 -5 -16 -11z"/>
<path d="M3690 2179 c0 -5 5 -7 10 -4 6 3 10 8 10 11 0 2 -4 4 -10 4 -5 0 -10
-5 -10 -11z"/>
<path d="M3124 2164 c9 -8 13 -20 10 -26 -4 -7 -2 -8 4 -4 7 4 12 2 12 -5 0
-7 3 -10 6 -7 7 8 -25 58 -38 58 -5 0 -2 -7 6 -16z"/>
<path d="M5670 2161 c0 -5 7 -15 17 -22 15 -13 15 -12 4 9 -12 23 -21 28 -21
13z"/>
<path d="M6203 2153 c4 -6 2 -13 -5 -15 -8 -3 -6 -7 5 -11 23 -9 30 8 10 24
-9 8 -14 9 -10 2z"/>
<path d="M3673 2115 c0 -8 4 -12 9 -9 4 3 8 9 8 15 0 5 -4 9 -8 9 -5 0 -9 -7
-9 -15z"/>
<path d="M6205 2100 c-3 -6 1 -7 9 -4 18 7 21 14 7 14 -6 0 -13 -4 -16 -10z"/>
<path d="M3580 2056 c0 -2 7 -9 15 -16 9 -7 15 -8 15 -2 0 5 -7 12 -15 16 -8
3 -15 4 -15 2z"/>
<path d="M6150 1999 c0 -5 5 -7 10 -4 6 3 10 8 10 11 0 2 -4 4 -10 4 -5 0 -10
-5 -10 -11z"/>
<path d="M3220 1979 c0 -5 5 -7 11 -4 6 4 13 -3 16 -15 4 -16 8 -18 14 -9 4 8
1 18 -9 26 -21 15 -32 16 -32 2z"/>
<path d="M3510 1881 c0 -6 4 -12 8 -15 5 -3 9 1 9 9 0 8 -4 15 -9 15 -4 0 -8
-4 -8 -9z"/>
<path d="M6064 1882 c4 -3 14 -7 22 -8 9 -1 13 0 10 4 -4 3 -14 7 -22 8 -9 1
-13 0 -10 -4z"/>
<path d="M3333 1840 c-1 -10 5 -21 13 -24 12 -5 13 -10 4 -28 -10 -21 -9 -21
9 2 l20 25 -20 7 c-11 4 -18 12 -14 17 3 5 2 12 -3 15 -4 2 -8 -4 -9 -14z"/>
<path d="M3486 1848 c3 -5 10 -6 15 -3 13 9 11 12 -6 12 -8 0 -12 -4 -9 -9z"/>
<path d="M3515 1841 c-3 -5 -2 -12 3 -15 5 -3 9 1 9 9 0 17 -3 19 -12 6z"/>
<path d="M5904 1808 c-4 -6 -2 -14 4 -16 7 -2 9 -9 6 -14 -4 -7 -2 -8 5 -4 8
6 9 12 2 20 -6 7 -8 16 -4 19 3 4 4 7 0 7 -3 0 -9 -5 -13 -12z"/>
<path d="M3436 1802 c-3 -4 4 -9 15 -9 23 -2 25 3 4 10 -8 4 -16 3 -19 -1z"/>
<path d="M5927 1756 c-4 -10 -1 -13 8 -9 8 3 12 9 9 14 -7 12 -11 11 -17 -5z"/>
</g>
</svg>
