<?xml version="1.0" standalone="no"?>
<!DOCTYPE svg PUBLIC "-//W3C//DTD SVG 20010904//EN"
 "http://www.w3.org/TR/2001/REC-SVG-20010904/DTD/svg10.dtd">
<svg version="1.0" xmlns="http://www.w3.org/2000/svg"
 width="116.000000pt" height="116.000000pt" viewBox="0 0 116.000000 116.000000"
 preserveAspectRatio="xMidYMid meet">
<metadata>
Created by potrace 1.14, written by Peter Selinger 2001-2017
</metadata>
<g transform="translate(0.000000,116.000000) scale(0.100000,-0.100000)"
fill="#000000" stroke="none">
<path d="M10 931 c0 -4 6 -15 14 -26 7 -11 24 -40 38 -65 14 -25 85 -148 158
-275 73 -126 140 -243 150 -260 9 -16 26 -44 37 -62 l19 -32 80 139 80 139 34
-57 c18 -31 49 -86 68 -122 58 -107 55 -105 79 -62 11 20 66 118 123 217 56
99 117 207 135 240 19 33 54 96 79 140 25 44 46 83 46 86 0 4 -256 6 -570 6
-313 0 -570 -2 -570 -6z"/>
</g>
</svg>
